<?xml version="1.0" encoding="utf-8"?>
<svg id="master-artboard" viewBox="0 0 1400 980" version="1.1" xmlns="http://www.w3.org/2000/svg" x="0px" y="0px" enable-background="new 0 0 1400 980" width="1400px" height="980px">
<path fill="#151D38" d="M247.4,770.1c1.1-0.8,2.3-1,3.6-1c12.2,0,24.3,0,36.5,0c0.6,0,1.3,0,1.9,0c0.9,0,0.9-0.3,0.5-1&#10;&#9;&#9;c-1.1-1.6-1.7-3.4-1.7-5.4c0-4.2,2.2-7.6,6.2-9.1c1.9-0.7,1.9-0.7,1.9-2.8c0-16.2,0-32.5,0-48.7c0-54.3,0-108.6,0-162.9&#10;&#9;&#9;c0-0.6-0.1-1.3,0-1.9c0.1-1.1-0.4-1.5-1.4-1.8c-3-0.9-5.1-2.9-6.2-5.9c-2.3-6.4,2.3-12.8,9.1-12.8c20.2,0,40.3,0,60.5,0&#10;&#9;&#9;c3.8,0,3.2,0.5,3.3-3.3c0-3.1,0-6.2,0-9.4c0.1-5.8,4.1-10,10-10.1c12.5-0.1,25-0.1,37.4,0c5.8,0,9.8,4.1,10,10.1&#10;&#9;&#9;c0.1,3.4,0,6.9,0,10.3c0,2.3,0,2.4,2.3,2.4c20.2,0,40.3,0,60.5,0c1.2,0,2.4,0,3.6,0.3c3.9,1.2,6.7,4.5,6.9,8.3&#10;&#9;&#9;c0.3,4.6-1.9,8.1-5.8,9.8c-2.1,0.9-2.2,0.9-2.2,3.2c0,13.8,0,27.7,0,41.5c0,3,0,2.6,2.6,2.6c10.7,0,21.4,0,32.2,0&#10;&#9;&#9;c1.7,0,3.3,0.2,4.8,1.3c2.1,1.5,2.9,4.1,2.3,6.8c-0.3,1.5-0.3,1.5,1.2,1.5c4.8,0,9.6,0,14.4,0c4.1,0.1,6.9,3.4,6.2,7.4&#10;&#9;&#9;c-0.4,2.1-1.6,3.6-3.5,4.6c-0.5,0.2-1.1,0.4-1.1,1.1c0,1,0,1.9,0.1,2.9c0,0.3,0.5,0.4,0.8,0.4c0.7,0,1.4,0,2.2,0&#10;&#9;&#9;c39,0,78.1,0,117.1,0c3.6,0,3.6,0,3.6,3.6c0,22.7,0,45.4,0,68.2c0,20.1-15.2,37.2-35.1,39.5c-3.9,0.4-7.8,0.1-11.8,0.2&#10;&#9;&#9;c-3.4,0.1-6.9-0.2-10.3,0.3c-8.1,1.1-14.2,7.9-14.3,16.1c-0.1,5.4,0,10.7,0,16.1c0,0.6,0,1.1,0,1.7c-0.1,1.5-0.4,1.7-1.9,1.8&#10;&#9;&#9;c-0.6,0-1.3,0-1.9,0c-15,0-29.9,0-44.9,0c-0.3,0-0.6,0-1,0c-2.5,0-3.2,1-2.5,3.4c0.1,0.4,0.4,0.7,0.7,0.9c3.5,1.7,4.7,4.4,3.6,8.1&#10;&#9;&#9;c-0.2,0.7,0,1.1,0.7,1c0.6,0,1.3,0,1.9,0c46.7,0,93.4,0,140.1,0c0.4,0,0.8,0,1.2,0c1.4,0,1.4-0.1,1-1.4c-0.6-2.2-0.3-4.5-0.2-6.7&#10;&#9;&#9;c0.1-9.7,0.4-19.3,0.6-29c0.3-13.2,0.6-26.4,1-39.6c0.3-13,0.6-26,1-39.1c0.1-2.8,0.2-5.6,0.3-8.4c0.2-3,2.2-5.3,5.2-6.1&#10;&#9;&#9;c2.9-0.7,6.1,0.5,7.3,3.3c0.8,1.8,1.9,2,3.5,2.1c9.4,0.2,18.7,0.4,28.1,0.6c2,0,2,0,1.5-2c-1.8-6.6-3.2-13.2-4.3-19.9&#10;&#9;&#9;c-1.1-6.8-1.7-13.6-2-20.5c-1.1-28.4,4-55.6,16.2-81.3c21.3-44.8,55.4-75.7,102-92.6c15.7-5.7,31.9-8.7,48.5-9.6&#10;&#9;&#9;c30-1.6,58.5,3.9,85.7,16.7c18.8,8.9,35.6,20.8,50.2,35.7c24.3,24.9,40.1,54.3,47.2,88.4c2.2,10.4,3.3,21,3.5,31.6&#10;&#9;&#9;c0.6,29.3-5.5,57.2-18.7,83.3c-17.4,34.2-43.2,60.2-77.3,77.9c-13.8,7.2-28.3,12.3-43.4,15.5c-0.5,0.1-0.9,0.2-1.4,0.3&#10;&#9;&#9;c-0.3,0.1-0.7,0-0.8,0.4c0.3,0,0.6,0.1,0.9,0.1c0.7,0,1.4,0,2.2,0c29.8,0,59.5,0,89.3,0c0.5,0,1,0,1.4,0c0.9,0,2-0.2,2.6,0.8&#10;&#9;&#9;c0.7,1.1-0.3,1.7-0.7,2.6c-264.3,0-528.6,0-793,0c-0.4-0.5-0.7-1-1.4-1C247.4,771,247.4,770.6,247.4,770.1z" transform="matrix(1, 0, 0, 1, 0, 0)"/><path fill="#CCD6DA" d="M880.3,713.2C880.3,713.2,880.3,713.2,880.3,713.2c-0.3,11.1-0.6,22.2-0.8,33.3c0,1.7,0,1.8,1.7,1.8&#10;&#9;&#9;c6.2,0,12.3,0,18.5,0c5.1,0,8,3.9,6.7,8.8c-0.4,1.5-0.4,1.5,1.2,1.5c5,0,10.1,0.2,15.1,0c4.4-0.2,8.4,2.9,7.7,8.1&#10;&#9;&#9;c-0.2,1.4-0.1,1.4,1.4,1.2c5.9-0.8,11.9-1.7,17.7-3.1c35-8.1,64.8-25.2,89-51.7c31.4-34.3,46.7-75,46-121.6&#10;&#9;&#9;c-0.2-10.3-1.3-20.6-3.4-30.7c-6.9-33.8-22.6-63-46.7-87.6c-13.9-14.2-29.9-25.5-47.7-34.2c-22.9-11.1-47.2-16.8-72.6-17.4&#10;&#9;&#9;c-9.2-0.2-18.4,0.4-27.5,1.7c-20.1,2.8-39.2,9-57.1,18.6c-21.4,11.4-39.7,26.6-54.7,45.6c-24.5,31.1-36.9,66.5-37.6,106&#10;&#9;&#9;c-0.2,8.9,0.5,17.7,1.7,26.5c1.1,7.8,2.8,15.4,4.9,23c0.3,1.1,0.6,2,2.2,2c6.9,0.1,13.7,0.3,20.6,0.4c5.4,0.1,10.9,0.1,16.3,0.4&#10;&#9;&#9;c1.8,0.1,3.4-0.2,5.1-1c16.1-8,32.2-16,48.3-23.9c10.5-5.2,20.9-10.3,31.4-15.5c6.3-3.1,12.6-6.2,18.9-9.4c0.3-0.1,0.9-0.2,0.7-0.7&#10;&#9;&#9;c-0.1-0.3-0.4-0.4-0.7-0.6c-0.2-0.1-0.4-0.2-0.6-0.3c-23.6-11.6-47.1-23.3-70.7-34.9c-15-7.4-30.1-14.9-45.1-22.3&#10;&#9;&#9;c-2.4-1.2-4.8-2.5-7.3-3.6c-0.9-0.5-1.7-1-1.3-2.2c0.3-0.9,1.3-1.1,2.7-0.4c1,0.4,2,0.9,3,1.4c15,7.4,29.9,14.8,44.9,22.2&#10;&#9;&#9;c26.3,13,52.6,26,78.8,39c0.9,0.4,1.9,0.8,1.8,2c-0.1,1.1-1,1.3-1.8,1.7c-0.4,0.2-0.7,0.4-1.1,0.5c-10.4,5.1-20.8,10.3-31.2,15.4&#10;&#9;&#9;c-18.8,9.3-37.7,18.6-56.5,28c-2.6,1.3-5.2,2.6-7.7,3.9c-0.4,0.2-1.1,0.3-1,0.8c0.1,0.6,0.8,0.4,1.2,0.4c3.4,0.1,6.7,0.2,10.1,0.3&#10;&#9;&#9;c13.1,0.3,26.2,0.7,39.3,1c11.6,0.3,23.2,0.5,34.8,0.8c2.6,0.1,3,0.3,2.9,2.9c-0.1,5.4-0.3,10.7-0.4,16.1c0,1-0.4,2,0.2,3&#10;&#9;&#9;c1-0.6,1.1-1.7,1.6-2.5c8.6-17.3,17.1-34.5,25.6-51.8c0.2-0.5,0.5-1,0.8-1.5c0.8-1.1,1.8-1.1,2.6-0.1c0.4,0.6,0.7,1.3,1,1.9&#10;&#9;&#9;c12.6,25.5,25.2,51,37.8,76.5c8,16.3,16.1,32.5,24.1,48.8c0.2,0.5,0.5,1,0.7,1.5c0.3,0.8-0.1,1.4-0.8,1.8c-0.7,0.4-1.3,0.1-1.7-0.4&#10;&#9;&#9;c-0.5-0.7-0.9-1.5-1.3-2.3c-11.9-24.1-23.8-48.1-35.7-72.2c-7.3-14.8-14.6-29.5-21.9-44.3c-1-2-2-4-3-6c-0.3-0.7-0.7-0.9-1.1-0.1&#10;&#9;&#9;c-0.2,0.4-0.4,0.7-0.5,1.1c-9.3,18.8-18.6,37.7-28,56.5c-0.6,1.2-0.8,2.4-0.9,3.7C880.8,691.6,880.5,702.4,880.3,713.2z" transform="matrix(1, 0, 0, 1, 0, 0)"/><path fill="#FAE0D6" d="M299.2,644.3c0,35.2,0,70.4,0,105.6c0,3.4-0.5,3.2,3.2,3.2c41.7,0,83.3,0,125,0c3.9,0,3.3,0.2,3.3-3.4&#10;&#9;&#9;c0-47.3,0-94.7,0-142c0-0.5,0-1,0-1.4c0.1-1.2-0.3-1.8-1.4-2.4c-2.7-1.4-3.9-4.3-3.2-7.1c0.8-2.9,3.1-4.7,6.2-4.7&#10;&#9;&#9;c1.8,0,3.7,0,5.5,0c3.1,0,6.2,0,9.4,0c0.9,0,1.1-0.3,0.8-1.1c-0.4-1.1-0.5-2.2-0.3-3.3c0.7-3.2,3.1-5.1,6.6-5.2&#10;&#9;&#9;c5.1,0,10.2,0,15.4,0c3.4,0,6.7,0,10.1,0c1.2,0,1.6-0.4,1.5-1.5c0-0.5,0-1,0-1.4c0-13.6,0-27.2,0-40.8c0-3.3,0.3-2.9-3-2.9&#10;&#9;&#9;c-58.7,0-117.4,0-176.1,0c-3.3,0-2.9-0.3-2.9,3C299.2,574,299.2,609.1,299.2,644.3z" transform="matrix(1, 0, 0, 1, 0, 0)"/><path fill="#7DA4EC" d="M707,706C707,706,707,706,707,706c-0.1,1.6-0.1,3.2-0.1,4.8c-0.1,5.4-0.2,10.9-0.3,16.3&#10;&#9;&#9;c-0.3,10.8-0.6,21.6-0.8,32.4c0,1.5-0.8,3.4,0.3,4.3c1,0.9,2.9,0.4,4.4,0.5c9.2,0.2,18.4,0.4,27.6,0.6c10.9,0.3,21.9,0.5,32.8,0.8&#10;&#9;&#9;c4.1,0.1,8.1,0.2,12.2,0.3c4.2,0.1,8.3,0.1,12.5,0.2c0.7,0,1.3,0,1.5-1c0.9-4.8,3-6.5,7.8-6.6c5,0,10.1,0,15.1,0&#10;&#9;&#9;c1.5,0,1.5,0,1.1-1.6c-1-3.7,0.6-7,3.8-8.4c1.1-0.5,2.3-0.4,3.5-0.4c15,0,29.9,0,44.9,0c3.1,0,3.1,0,3.2-3.1c0-0.2,0-0.3,0-0.5&#10;&#9;&#9;c0.2-9.3,0.4-18.5,0.6-27.8c0.3-10.3,0.6-20.6,0.8-30.9c0.2-10.6,0.4-21.3,0.7-31.9c0.1-2.8,0.1-2.8-2.8-2.9c-0.5,0-1,0-1.4,0&#10;&#9;&#9;c-3.9-0.1-7.8-0.1-11.8-0.2c-9.3-0.2-18.5-0.5-27.8-0.8c-10.4-0.3-20.8-0.4-31.2-0.7c-9.3-0.2-18.7-0.5-28-0.8&#10;&#9;&#9;c-10.3-0.3-20.6-0.4-30.9-0.7c-10.9-0.3-21.7-0.6-32.6-0.8c-3.7-0.1-3.7,0-3.8,3.9c-0.1,5.6-0.2,11.2-0.3,16.8&#10;&#9;&#9;C707.7,680.6,707.4,693.3,707,706z" transform="matrix(1, 0, 0, 1, 0, 0)"/><path fill="#ACDCF6" d="M543.1,682.1c0,22.4,0,44.8,0,67.2c0,0.6,0.1,1.3,0,1.9c-0.1,1.3,0.5,1.6,1.7,1.6c15.3,0,30.6,0,45.8,0&#10;&#9;&#9;c1.7,0,1.8,0,1.8-1.7c0-4.7,0-9.4,0-14.2c0-1.4,0-2.7,0.3-4.1c1.8-9.3,9.6-15.9,19.2-16c5-0.1,10.1,0,15.1,0&#10;&#9;&#9;c11.1-0.1,20.4-4.3,27.7-12.6c6.2-6.9,9.1-15.1,9.2-24.4c0.1-7.9,0-15.8,0-23.8c0-4.7,0-9.4,0-14.2c0-0.9-0.1-1.6-1.1-2.1&#10;&#9;&#9;c-2.6-1.1-3.7-3.4-3.8-6.2c0-2.3,0-4.6,0-7c0-2.9,1.1-5.2,3.8-6.4c0.9-0.4,1.1-1,1.1-1.9c0-1.8-0.1-3.7,0-5.5&#10;&#9;&#9;c0-1.2-0.3-1.8-1.6-1.7c-0.4,0-0.8,0-1.2,0c-38.4,0-76.8,0-115.2,0c-3.1,0-2.8-0.2-2.8,2.9C543.1,636.8,543.1,659.5,543.1,682.1z" transform="matrix(1, 0, 0, 1, 0, 0)"/><path fill="#FFF3A2" d="M495,682c0-22.6,0-45.1,0-67.7c0-3.3,0.4-3-3.1-3c-18.4,0-36.8,0-55.2,0c-0.6,0-1.1,0-1.7,0&#10;&#9;&#9;c-0.9,0-1.3,0.4-1.3,1.3c0,0.5,0,1,0,1.4c0,45.3,0,90.7,0,136c0,3-0.3,2.7,2.7,2.8c18.6,0,37.3,0,55.9,0c3,0,2.7,0.3,2.7-2.7&#10;&#9;&#9;C495,727.4,495,704.7,495,682z" transform="matrix(1, 0, 0, 1, 0, 0)"/><path fill="#EBBE62" d="M508.9,682c0,22.6,0,45.1,0,67.7c0,0.7,0,1.4,0,2.2c0,0.7,0.4,1,1,1c0.6,0,1.1,0,1.7,0c8.6,0,17.1,0,25.7,0&#10;&#9;&#9;c3.3,0,2.9,0.4,2.9-3c0-45.1,0-90.2,0-135.3c0-0.4,0-0.8,0-1.2c0-2,0-2-2-2c-9.1,0-18.2,0-27.4,0c-1.9,0-1.9,0-1.9,1.8&#10;&#9;&#9;c0,0.6,0,1.1,0,1.7C508.9,637.2,508.9,659.6,508.9,682z" transform="matrix(1, 0, 0, 1, 0, 0)"/><path fill="#E894AF" d="M390.3,532.8c30.2,0,60.5,0,90.7,0c0.9,0,1.8,0,2.6-0.1c3.1-0.4,5.4-2.9,5.7-5.9c0.2-3.2-1.7-5.9-4.8-6.9&#10;&#9;&#9;c-1.1-0.3-2.2-0.3-3.3-0.3c-24.3,0-48.6,0-73,0c-36.3,0-72.6,0-108.9,0c-1.2,0-2.4,0-3.6,0.4c-2.8,0.9-4.7,3.7-4.5,6.6&#10;&#9;&#9;c0.2,3,2.4,5.5,5.3,6c0.9,0.2,1.9,0.1,2.9,0.1C329.6,532.8,360,532.8,390.3,532.8z" transform="matrix(1, 0, 0, 1, 0, 0)"/><path fill="#E894AF" d="M363,756.1c-13.5,0-27,0-40.5,0c-8.3,0-16.6,0-24.9,0c-3.3,0-6,2.4-6.4,5.7c-0.4,3.1,1.7,6.2,4.8,7.1&#10;&#9;&#9;c1,0.3,2.1,0.2,3.1,0.2c41.6,0,83.2,0,124.7,0c0.6,0,1.1,0,1.7,0c0.9,0.1,1-0.2,0.8-1.1c-0.9-4-0.1-5.8,3.5-7.9&#10;&#9;&#9;c0.5-0.3,0.8-0.6,0.9-1.2c0.3-2.4,0.1-2.7-2.4-2.7c-0.5,0-1,0-1.4,0C405.6,756.1,384.3,756.1,363,756.1z" transform="matrix(1, 0, 0, 1, 0, 0)"/><path fill="#E894AF" d="M390,516.7c7.9,0,15.8,0,23.7,0c2.3,0,2.2,0.1,2.2-2.2c0-3.4-0.1-6.7,0-10.1c0.1-4.4-3.5-7.5-7.6-7.5&#10;&#9;&#9;c-12.1,0.1-24.3,0-36.4,0.1c-4.6,0-7.4,2.9-7.5,7.5c0,3.4,0,6.7,0,10.1c0,2.1,0,2.2,2.3,2.2C374.5,516.7,382.3,516.7,390,516.7z" transform="matrix(1, 0, 0, 1, 0, 0)"/><path fill="#7DA4EC" d="M696.6,705.5C696.6,705.5,696.6,705.5,696.6,705.5c-0.1,1.7,0,3.4-0.1,5c-0.2,9.3-0.5,18.5-0.8,27.8&#10;&#9;&#9;c-0.2,5.9-0.3,11.8-0.5,17.7c-0.1,3.1-0.1,6.2-0.1,9.4c0,1.8,1.1,3.1,2.7,3.6c1.5,0.4,3.3-0.3,4.2-1.7c0.5-0.8,0.6-1.7,0.6-2.5&#10;&#9;&#9;c0.3-13.3,0.7-26.5,1-39.8c0.1-5.4,0.2-10.9,0.3-16.3c0.2-9.2,0.5-18.4,0.8-27.6c0.3-11,0.5-22.1,0.8-33.1c0-1.1,0-2.2-0.1-3.3&#10;&#9;&#9;c-0.2-1.4-1-2.3-2.4-2.8c-1.4-0.5-2.7-0.2-3.8,0.8c-0.9,0.9-1.2,2-1.2,3.3c-0.3,10.7-0.6,21.4-0.9,32.1&#10;&#9;&#9;C697,687.3,696.8,696.4,696.6,705.5z" transform="matrix(1, 0, 0, 1, 0, 0)"/><path fill="#7DA4EC" d="M863.7,769.1c19.4,0,38.9,0,58.3,0c0.7,0,1.4,0,2.2,0c1.9-0.2,3.3-1.7,3.4-3.5c0.1-1.9-1.3-3.6-3.2-3.8&#10;&#9;&#9;c-0.6-0.1-1.3-0.1-1.9-0.1c-39,0-78.1,0-117.1,0c-0.7,0-1.4,0-2.2,0.1c-1.8,0.3-3,1.8-3,3.5c0,1.8,1.3,3.4,3.1,3.7&#10;&#9;&#9;c0.7,0.1,1.4,0.1,2.2,0.1C824.8,769.1,844.2,769.1,863.7,769.1z" transform="matrix(1, 0, 0, 1, 0, 0)"/><path fill="#EBBE62" d="M487.1,595c-17.7,0-35.4,0-53,0c-0.8,0-1.6,0-2.4,0.1c-1.6,0.3-2.8,1.7-2.8,3.2c0,1.5,1.1,2.9,2.8,3.2&#10;&#9;&#9;c0.7,0.1,1.4,0.1,2.1,0.1c35.4,0,70.9,0,106.3,0c0.6,0,1.3,0,1.9-0.1c1.7-0.3,2.9-1.8,2.9-3.3c-0.1-1.6-1.4-2.9-3.1-3.2&#10;&#9;&#9;c-0.7-0.1-1.4,0-2.2,0C522.2,595,504.6,595,487.1,595z" transform="matrix(1, 0, 0, 1, 0, 0)"/><path fill="#FFF3A2" d="M486.9,762.7c-17.6,0-35.2,0-52.8,0c-0.8,0-1.6,0-2.4,0.1c-1.5,0.2-2.8,1.7-2.8,3.1c0,1.5,1.3,2.9,2.8,3.2&#10;&#9;&#9;c0.6,0.1,1.3,0.1,1.9,0.1c35.5,0,71,0,106.5,0c0.6,0,1.3,0,1.9,0c1.7-0.2,2.9-1.7,2.9-3.3c-0.1-1.5-1.3-2.9-2.9-3.1&#10;&#9;&#9;c-0.8-0.1-1.6-0.1-2.4-0.1C522.1,762.7,504.5,762.7,486.9,762.7z" transform="matrix(1, 0, 0, 1, 0, 0)"/><path fill="#7DA4EC" d="M863.7,758.7c11.5,0,23,0,34.5,0c0.8,0,1.6,0,2.4-0.1c1.8-0.3,3.1-1.9,3.1-3.7c-0.1-1.8-1.4-3.3-3.3-3.5&#10;&#9;&#9;c-0.6-0.1-1.3,0-1.9,0c-23.2,0-46.4,0-69.6,0c-0.6,0-1.1,0-1.7,0c-1.9,0.2-3.4,1.8-3.4,3.6c0,1.8,1.3,3.4,3.2,3.6&#10;&#9;&#9;c0.8,0.1,1.6,0.1,2.4,0.1C840.9,758.7,852.3,758.7,863.7,758.7z" transform="matrix(1, 0, 0, 1, 0, 0)"/><path fill="#FFF3A2" d="M487,592c10.4,0,20.8,0,31.2,0c0.7,0,1.4,0.1,2.2-0.1c1.6-0.2,2.8-1.6,2.9-3.1c0.1-1.5-1-2.9-2.6-3.3&#10;&#9;&#9;c-0.6-0.2-1.3-0.2-1.9-0.2c-21.2,0-42.4,0-63.5,0c-0.6,0-1.3,0-1.9,0.2c-1.8,0.4-2.8,1.8-2.6,3.5c0.1,1.6,1.3,2.7,3,2.9&#10;&#9;&#9;c0.6,0.1,1.3,0,1.9,0C466.1,592,476.5,592,487,592z" transform="matrix(1, 0, 0, 1, 0, 0)"/><path fill="#151D38" d="M486.8,608.3c17,0,34.1,0,51.1,0c2.3,0,2.4-0.1,2.3-2.4c-0.1-0.9-0.3-1.4-1.3-1.3c-0.7,0-1.4,0-2.2,0&#10;&#9;&#9;c-33.3,0-66.5,0-99.8,0c-0.5,0-1,0-1.4,0c-1.9,0-1.9,0.1-1.9,1.9c0,1.8,0,1.8,1.8,1.9c0.6,0,1.1,0,1.7,0&#10;&#9;&#9;C453.7,608.3,470.3,608.3,486.8,608.3z" transform="matrix(1, 0, 0, 1, 0, 0)"/><path fill="#151D38" d="M486.9,759.6c17,0,33.9,0,50.9,0c2.4,0,2.4,0,2.4-1.8c0-2,0-2-2-2c-0.4,0-0.8,0-1.2,0c-33.3,0-66.7,0-100,0&#10;&#9;&#9;c-0.6,0-1.1,0-1.7,0c-1.3-0.1-1.6,0.6-1.6,1.7c0,2.1,0,2.1,2.1,2.1c0.5,0,1,0,1.4,0C453.8,759.6,470.3,759.6,486.9,759.6z" transform="matrix(1, 0, 0, 1, 0, 0)"/><path fill="#FFFFFF" d="M505.8,682.1c0-22.5,0-45,0-67.4c0-0.7,0-1.4,0-2.2c0-0.8-0.3-1.2-1.2-1.2c-0.8,0-1.2,0.3-1.2,1.1&#10;&#9;&#9;c0,0.7,0,1.4,0,2.2c0,45,0,90.1,0,135.1c0,0.6,0,1.3,0,1.9c0,0.9,0.4,1.3,1.3,1.2c0.8,0,1.1-0.4,1.1-1.2c0-0.7,0-1.4,0-2.2&#10;&#9;&#9;C505.8,727,505.8,704.5,505.8,682.1z" transform="matrix(1, 0, 0, 1, 0, 0)"/><path fill="#151D38" d="M497.9,681.8c0,22.6,0,45.3,0,67.9c0,0.7,0,1.4,0,2.2c0,0.9,0.6,1,1.3,1c0.8,0,1.2-0.2,1.2-1.1&#10;&#9;&#9;c0-0.6,0-1.1,0-1.7c0-45.4,0-90.7,0-136.1c0-0.6,0-1.1,0-1.7c0-0.9-0.5-1-1.2-1c-0.8,0-1.2,0.3-1.2,1.1c0,0.6,0,1.3,0,1.9&#10;&#9;&#9;C497.9,636.8,497.9,659.3,497.9,681.8z" transform="matrix(1, 0, 0, 1, 0, 0)"/><path fill="#FFFFFF" d="M740.8,769.1c0,0,0-0.1,0-0.1c11.6,0,23.2,0,34.8,0c0.3,0,0.6-0.1,0.9-0.1c-0.3,0-0.6-0.1-0.9-0.1&#10;&#9;&#9;c-7-0.2-14.1-0.3-21.1-0.5c-5.2-0.1-10.4-0.2-15.6-0.3c-10.5-0.3-20.9-0.5-31.4-0.8c-0.4,0-0.8,0-1.2,0c-1,0-1.3,0.8-1.3,1.4&#10;&#9;&#9;c-0.1,0.9,0.8,0.5,1.3,0.6c0.5,0.1,1,0,1.4,0C718.7,769.1,729.7,769.1,740.8,769.1z" transform="matrix(1, 0, 0, 1, 0, 0)"/><path fill="#FFFFFF" d="M663.9,630.3C663.9,630.3,663.9,630.3,663.9,630.3c0-1.6,0.1-3.2,0-4.8c0-0.6,0.5-1.7-0.5-1.8&#10;&#9;&#9;c-0.7-0.1-1.1,0.9-1.3,1.5c-0.1,0.4-0.1,0.8-0.1,1.2c0,2.5,0,5,0,7.4c0,0.8,0.2,1.6,0.7,2.2c0.2,0.3,0.5,0.7,1,0.5&#10;&#9;&#9;c0.4-0.1,0.3-0.5,0.3-0.8C663.9,633.9,663.9,632.1,663.9,630.3z" transform="matrix(1, 0, 0, 1, 0, 0)"/><path fill="#151D38" d="M666.4,207.5c0.4,0.9,0.5,1.8,0.5,2.8c0.2,4.9,0.4,9.7,1.8,14.5c0.5,1.6,1.1,3.2,2,4.6&#10;&#9;&#9;c2.6,4.5,6.6,6.5,11.6,7c0.6,0.1,1.3,0,1.9,0.1c1,0.1,1.8,0.4,1.7,1.6c0,1-0.8,1.3-1.7,1.4c-0.9,0.1-1.8,0.1-2.6,0.2&#10;&#9;&#9;c-5.8,0.6-9.7,3.6-12,9c-1.9,4.5-2.3,9.3-2.6,14.1c-0.1,1.3-0.1,2.6-0.1,3.8c0,0.9-0.3,1.6-1.3,1.7c-1.1,0-1.5-0.7-1.6-1.7&#10;&#9;&#9;c0-1.6,0-3.2-0.1-4.8c-0.2-3.8-0.7-7.5-1.8-11.1c-1.5-4.5-4-8.2-8.6-10c-1.9-0.7-3.9-1-5.9-1.1c-2-0.1-2.5-0.5-2.5-1.5&#10;&#9;&#9;c0-1,0.6-1.4,2.5-1.5c7.9-0.5,12.3-4,14.6-11.5c1.4-4.6,1.8-9.4,1.8-14.2c0-1.1,0-2.2,0.9-3.1C665.4,207.5,665.9,207.5,666.4,207.5&#10;&#9;&#9;z M675.5,238c0-0.2,0-0.3-0.9-0.8c-2.6-1.4-4.6-3.4-6.2-5.8c-1-1.6-1.7-3.4-2.4-5.2c-0.1-0.3,0-0.9-0.5-0.9c-0.5,0-0.5,0.5-0.6,0.9&#10;&#9;&#9;c-1.5,4.8-4.1,8.8-8.8,11.2c-0.8,0.4-0.8,0.8,0,1.2c4.4,2.3,6.9,6,8.5,10.5c0.1,0.3,0.2,0.6,0.3,0.9c0.1,0.3,0.2,0.7,0.6,0.7&#10;&#9;&#9;c0.3,0,0.3-0.5,0.4-0.7c1.6-5,4.2-9.1,9.1-11.5C675.3,238.3,675.4,238.1,675.5,238z" transform="matrix(1, 0, 0, 1, 0, 0)"/><path fill="#151D38" d="M1152.6,562.7c-0.3,0.2-0.3,0.5-0.4,0.8c-0.6,2.4-2.4,3.8-4.8,3.8c-2.3,0-4.4-1.7-4.8-3.9&#10;&#9;&#9;c-0.5-2.4,0.7-4.8,2.8-5.8c2-0.9,4.6-0.3,6.1,1.3c0.8,0.8,0.4,2,1.2,2.8C1152.6,562.1,1152.6,562.4,1152.6,562.7z M1149.6,562.2&#10;&#9;&#9;c-0.1-1.1-1-1.9-2.1-1.9c-1.2,0-2.1,1.1-2,2.2c0.1,1,1.1,1.9,2.2,1.8C1148.7,564.1,1149.6,563.2,1149.6,562.2z" transform="matrix(1, 0, 0, 1, 0, 0)"/><path fill="#7DA4EC" d="M417.6,305.5c1.1,0.1,1.2,1,1.2,1.9c0.1,2.2,0.1,4.5,0.2,6.7c0.2,6.4,1,12.7,2.9,18.9&#10;&#9;&#9;c1.4,4.5,3.6,8.6,7,11.8c4.4,4.2,9.8,5.8,15.7,6.2c0.9,0.1,1.8,0,2.6,0.1c0.9,0,1.5,0.4,1.6,1.4c0,1-0.6,1.4-1.5,1.4&#10;&#9;&#9;c-2.3,0.1-4.6,0.3-6.9,0.7c-8,1.5-13.5,6.2-16.9,13.5c-2.3,4.9-3.3,10.2-4,15.5c-0.5,4.4-0.7,8.9-0.8,13.4c0,0.6,0,1.1-0.1,1.7&#10;&#9;&#9;c-0.1,0.6-0.6,0.9-1.2,0.9c-0.7,0-1.3-0.2-1.4-1c-0.1-0.7-0.1-1.4-0.1-2.1c0-6.9-0.5-13.7-2-20.5c-0.8-3.4-1.9-6.7-3.6-9.9&#10;&#9;&#9;c-3.9-7-10-10.8-17.8-11.8c-1.6-0.2-3.2-0.3-4.8-0.4c-1,0-1.8-0.3-1.8-1.4c0-1.1,0.8-1.5,1.8-1.5c2.6,0,5.1-0.3,7.6-0.9&#10;&#9;&#9;c7.1-1.6,12.2-5.8,15.5-12.2c2.3-4.5,3.4-9.3,4.2-14.2c0.8-5.1,1-10.3,1.1-15.5c0-0.6,0-1.1,0.1-1.7&#10;&#9;&#9;C416.2,305.8,416.8,305.4,417.6,305.5z M436,352.6c-0.2-0.7-0.9-0.6-1.4-0.8c-5.9-2.5-10.2-6.6-13.1-12.4c-1.5-2.9-2.5-6-3.3-9.2&#10;&#9;&#9;c-0.2-0.7-0.3-2.1-0.7-2.1c-0.8,0.1-0.6,1.3-0.8,2.1c-2.5,9.8-7,18-17.1,21.8c-0.3,0.1-0.7,0.4-0.6,0.6c0.1,0.3,0.6,0.4,1,0.6&#10;&#9;&#9;c7.1,2.8,11.7,8.1,14.6,15c0.9,2.1,1.5,4.2,2.1,6.4c0.2,0.8,0.2,1.8,0.8,2.5c0.7-0.7,0.6-1.7,0.9-2.5c0.8-2.8,1.6-5.5,2.9-8.1&#10;&#9;&#9;c2.9-6.1,7.3-10.6,13.7-13.1C435.2,353.1,435.8,353.1,436,352.6z" transform="matrix(1, 0, 0, 1, 0, 0)"/><path fill="#151D38" d="M1106.6,395.9c0,3.1,0,6.2,0,9.4c0,0.4-0.2,0.9,0.3,1c0.4,0.1,0.6-0.4,0.9-0.7c1.4-1.9,2.8-3.9,4.2-5.8&#10;&#9;&#9;c0.3-0.5,0.6-0.9,1-1.3c0.6-0.7,1.4-0.8,2.2-0.2c0.7,0.5,0.6,1.3,0.2,1.9c-0.3,0.5-0.6,0.9-1,1.4c-1.7,2.4-3.5,4.8-5.2,7.2&#10;&#9;&#9;c-0.3,0.4-0.8,0.7-0.4,1.2c0.2,0.2,0.7,0.2,1.1,0.2c4.2,0,8.3,0,12.5,0c0.6,0,1.3,0,1.9,0.1c0.8,0.2,1.2,0.7,1.2,1.6&#10;&#9;&#9;c-0.1,0.9-0.6,1.3-1.4,1.3c-1.4,0-2.7,0-4.1,0c-3.4,0-6.9,0-10.3,0c-1.2,0-1.4,0.3-0.7,1.2c1.8,2.5,3.7,5,5.5,7.6&#10;&#9;&#9;c0.4,0.5,0.8,1,1,1.6c0.3,0.6,0.2,1.3-0.4,1.7c-0.6,0.4-1.2,0.4-1.8,0c-0.5-0.4-0.9-0.9-1.2-1.4c-1.5-2.1-3-4.1-4.5-6.2&#10;&#9;&#9;c-0.2-0.2-0.3-0.6-0.7-0.5c-0.4,0.1-0.3,0.5-0.3,0.8c0,6,0,12,0,18c0,0.5,0,1,0,1.4c0,1-0.4,1.6-1.4,1.7c-1.1,0.1-1.5-0.7-1.6-1.7&#10;&#9;&#9;c0-0.6,0-1.3,0-1.9c0-5.4,0-10.9,0-16.3c0-0.4,0-0.8,0-1.2c0-0.3,0-0.7-0.4-0.7c-0.2,0-0.4,0.2-0.5,0.4c-1.3,1.8-2.6,3.6-4,5.4&#10;&#9;&#9;c-0.4,0.6-0.9,1.2-1.3,1.7c-0.6,0.8-1.4,1.1-2.3,0.5c-0.9-0.7-0.6-1.6-0.1-2.3c0.6-0.9,1.2-1.7,1.8-2.5c1.4-1.9,2.8-3.9,4.2-5.8&#10;&#9;&#9;c0.2-0.3,0.6-0.6,0.4-1c-0.2-0.6-0.8-0.4-1.2-0.4c-4.2,0-8.3,0-12.5,0c-0.6,0-1.3,0-1.9-0.1c-0.7-0.1-1.1-0.6-1.2-1.3&#10;&#9;&#9;c0-0.7,0.3-1.2,1-1.5c0.7-0.3,1.4-0.2,2.1-0.2c3.9,0,7.8,0,11.8,0c0.6,0,1.5,0.3,1.8-0.2c0.4-0.7-0.5-1.2-0.9-1.8&#10;&#9;&#9;c-1.7-2.3-3.4-4.7-5.1-7c-1-1.4-1.2-2.4-0.4-3c0.8-0.7,1.8-0.3,2.9,1.2c1.5,2.1,3,4.1,4.5,6.2c0.2,0.2,0.5,0.6,0.7,0.6&#10;&#9;&#9;c0.5-0.1,0.4-0.6,0.4-1c0-5.8,0-11.5,0-17.3c0-0.6,0-1.3,0-1.9c0.1-1.1,0.8-1.8,1.6-1.7c0.9,0.2,1.3,0.8,1.3,1.7&#10;&#9;&#9;C1106.5,389.4,1106.6,392.6,1106.6,395.9C1106.6,395.9,1106.6,395.9,1106.6,395.9z" transform="matrix(1, 0, 0, 1, 0, 0)"/><path fill="#151D38" d="M278.8,402.7c0-2.8,0-5.6,0-8.4c0-0.6,0-1.1,0-1.7c0-0.7,0.4-1.2,1.2-1.3c0.8-0.1,1.4,0.3,1.7,1.1&#10;&#9;&#9;c0.3,0.7,0.2,1.4,0.2,2.1c0,5.4,0,10.9,0,16.3c0,0.6,0,1.1,0,1.7c0,0.2,0,0.5,0.3,0.6c0.3,0.1,0.4-0.2,0.6-0.3&#10;&#9;&#9;c0.4-0.4,0.7-0.9,1-1.3c1.2-1.7,2.4-3.4,3.7-5c1.1-1.5,2.1-1.9,2.9-1.3c0.7,0.5,0.6,1.8-0.3,3c-1.8,2.3-3.5,4.8-5.3,7.1&#10;&#9;&#9;c-0.3,0.4-0.6,0.8-0.8,1.2c-0.3,0.5,0,0.8,0.4,0.8c0.6,0.1,1.1,0,1.7,0c3.8,0,7.7,0,11.5,0c0.6,0,1.1,0,1.7,0&#10;&#9;&#9;c0.8,0.1,1.4,0.4,1.5,1.3c0.1,0.9-0.4,1.4-1.2,1.5c-0.7,0.1-1.4,0.2-2.1,0.2c-4.1,0-8.2,0-12.2,0c-0.4,0-0.9,0-1.1,0.2&#10;&#9;&#9;c-0.4,0.5,0.2,0.9,0.4,1.2c1.8,2.5,3.7,5,5.5,7.6c1,1.5,1.2,2.4,0.4,3c-0.8,0.7-1.8,0.3-2.9-1.2c-1.5-2.1-3-4.1-4.5-6.2&#10;&#9;&#9;c-0.2-0.2-0.5-0.6-0.7-0.6c-0.6,0.1-0.3,0.6-0.3,1c0,5.8,0,11.7,0,17.5c0,0.6,0,1.3-0.1,1.9c-0.2,0.9-0.7,1.5-1.7,1.4&#10;&#9;&#9;c-0.8-0.1-1.2-0.7-1.2-1.5c0-0.6,0-1.3,0-1.9c0-5.4,0-10.7,0-16.1c0-0.6,0-1.1,0-1.7c0-0.3,0-0.7-0.4-0.7c-0.2,0-0.4,0.2-0.5,0.4&#10;&#9;&#9;c-1.1,1.4-2.1,2.8-3.1,4.3c-0.7,1-1.4,1.9-2.1,2.9c-0.6,0.8-1.4,1.1-2.3,0.5c-0.9-0.6-0.7-1.5-0.2-2.3c1.5-2.2,3.1-4.3,4.6-6.4&#10;&#9;&#9;c0.7-1,2.2-2,1.7-2.9c-0.5-1-2.2-0.3-3.3-0.4c-3.4-0.1-6.9,0-10.3,0c-0.6,0-1.1,0-1.7-0.1c-0.9-0.2-1.4-0.7-1.3-1.7&#10;&#9;&#9;c0.1-0.9,0.7-1.2,1.5-1.2c2.5,0,5,0,7.4,0c2.3,0,4.6,0,7,0c1.2,0,1.3-0.3,0.6-1.3c-1.7-2.4-3.5-4.8-5.2-7.2c-0.3-0.5-0.7-0.9-1-1.4&#10;&#9;&#9;c-0.5-0.8-0.7-1.6,0.1-2.4c0.7-0.6,1.7-0.3,2.5,0.7c0.5,0.6,1,1.3,1.4,1.9c0.9,1.3,1.9,2.6,2.8,3.9c0.5,0.6,0.7,1.7,1.5,1.5&#10;&#9;&#9;c0.6-0.2,0.3-1.3,0.3-2C278.8,408.3,278.8,405.5,278.8,402.7z" transform="matrix(1, 0, 0, 1, 0, 0)"/><path fill="#7DA4EC" d="M910.9,293.5c0.9,0,1.3,0.6,1.3,1.4c0.1,1.3,0.2,2.5,0.2,3.8c0.1,3.9,0.5,7.6,1.5,11.4&#10;&#9;&#9;c0.2,0.7,0.4,1.4,0.6,2.1c2.3,6.4,7,9.7,13.7,10.1c0.6,0,1.1,0,1.7,0.1c0.8,0.1,1.3,0.6,1.3,1.4c0,0.8-0.5,1.3-1.3,1.4&#10;&#9;&#9;c-1.2,0.1-2.4,0.2-3.6,0.4c-5.6,0.7-9.3,3.9-11.4,9c-1.8,4.5-2.4,9.2-2.5,14.1c0,1.4-0.1,2.7-0.2,4.1c0,0.7-0.3,1.2-1.1,1.3&#10;&#9;&#9;c-0.9,0.1-1.4-0.3-1.6-1.1c-0.2-0.8-0.1-1.6-0.1-2.4c0-4.4-0.4-8.8-1.5-13c-0.2-0.7-0.4-1.4-0.6-2.1c-2.3-6.4-6.9-9.7-13.7-10.2&#10;&#9;&#9;c-0.6,0-1.1,0-1.7-0.1c-0.8-0.1-1.3-0.6-1.3-1.4c0-0.9,0.5-1.3,1.3-1.4c1.3-0.1,2.5-0.2,3.8-0.4c5.5-0.8,9.1-4,11.2-9&#10;&#9;&#9;c1.6-3.9,2.2-8,2.4-12.2c0.1-1.8,0-3.7,0.1-5.5C909.5,294,910.1,293.5,910.9,293.5z M920.8,323.6c-0.1-0.5-0.5-0.5-0.9-0.7&#10;&#9;&#9;c-3.9-2.1-6.4-5.5-7.9-9.6c-0.2-0.6-0.4-1.2-0.7-1.8c-0.1-0.2-0.2-0.6-0.4-0.6c-0.3,0-0.4,0.4-0.5,0.7c-0.1,0.4-0.2,0.8-0.4,1.1&#10;&#9;&#9;c-1.1,2.9-2.6,5.7-4.9,7.8c-1.1,1-2.2,1.8-3.5,2.5c-0.9,0.5-0.8,0.8,0,1.3c1.3,0.7,2.6,1.6,3.7,2.6c2.6,2.4,4,5.5,5.1,8.8&#10;&#9;&#9;c0.1,0.3,0.3,0.5,0.5,0.8c0.1-0.2,0.3-0.4,0.4-0.6c1.6-5,4.2-9.3,9.1-11.8C920.7,324.1,920.9,324,920.8,323.6z" transform="matrix(1, 0, 0, 1, 0, 0)"/><path fill="#7DA4EC" d="M601.9,480c-0.2,1-0.8,1.4-1.7,1.5c-1.4,0.1-2.9,0.2-4.3,0.5c-4.6,0.9-7.8,3.5-9.9,7.6&#10;&#9;&#9;c-1.6,3.2-2.3,6.6-2.7,10.1c-0.3,2.6-0.6,5.2-0.5,7.9c0,0.5,0,1,0,1.4c-0.1,0.8-0.6,1.3-1.4,1.3c-0.8,0-1.3-0.6-1.4-1.4&#10;&#9;&#9;c0-0.5,0-1,0-1.4c-0.1-4.1-0.3-8.1-1.2-12.1c-0.3-1.2-0.7-2.5-1.1-3.7c-2.3-6.3-6.8-9.7-13.5-10.1c-0.6,0-1.3,0-1.9-0.1&#10;&#9;&#9;c-0.8-0.1-1.3-0.6-1.3-1.4c0-0.8,0.5-1.3,1.4-1.4c1-0.1,2.1-0.2,3.1-0.3c5.6-0.6,9.5-3.6,11.7-8.7c2-4.5,2.4-9.4,2.7-14.3&#10;&#9;&#9;c0.1-1.3,0.1-2.6,0.1-3.8c0-1,0.3-1.8,1.5-1.7c1.2,0,1.4,0.9,1.4,1.8c-0.1,2.6,0.2,5.3,0.4,7.9c0.3,3.3,0.9,6.5,2.2,9.5&#10;&#9;&#9;c2.2,5.4,6.1,8.6,12.1,9.2c1,0.1,2.1,0.2,3.1,0.3C601.5,478.7,601.8,479.3,601.9,480z M591.5,479.8c-0.3-0.2-0.7-0.4-1-0.6&#10;&#9;&#9;c-2.3-1.2-4.2-2.9-5.6-5.1c-1.2-1.8-2.1-3.8-2.8-5.8c-0.1-0.3-0.1-0.9-0.6-0.9c-0.5,0-0.5,0.6-0.6,0.9c-1.6,4.8-4.2,8.8-8.8,11.1&#10;&#9;&#9;c-0.9,0.4-0.5,0.8,0.1,1.1c2.1,1.2,4,2.6,5.5,4.6c1.5,2,2.5,4.2,3.3,6.6c0.1,0.4,0.1,0.9,0.6,0.9c0.5,0,0.4-0.6,0.5-0.9&#10;&#9;&#9;c1.6-4.8,4.2-8.8,8.8-11.1c0.1-0.1,0.3-0.2,0.4-0.3C591.4,480.2,591.4,480,591.5,479.8z" transform="matrix(1, 0, 0, 1, 0, 0)"/><path fill="#151D38" d="M513,270.9c0,3.3-2.3,5.7-5.4,5.7c-3.3,0.1-5.9-2.3-5.9-5.6c0-3.2,2.6-5.9,5.7-5.8&#10;&#9;&#9;C510.5,265.3,512.9,267.8,513,270.9z M510,271.1c0-1.6-1.1-2.8-2.6-2.8c-1.5,0-2.9,1.3-2.9,2.8c0,1.5,1.3,2.7,2.8,2.7&#10;&#9;&#9;C508.8,273.8,510,272.6,510,271.1z" transform="matrix(1, 0, 0, 1, 0, 0)"/><path fill="#151D38" d="M665.5,561.2c2.8,0,5.1,2.1,5.1,4.9c0.1,2.7-2.2,5.1-4.9,5.2c-2.9,0.1-5.2-2.1-5.2-5.1&#10;&#9;&#9;C660.5,563.4,662.6,561.2,665.5,561.2z M665.5,568.2c1.1,0,2-0.9,2-2c0-1-0.9-2-1.9-2.1c-1.1-0.1-2.1,0.9-2.1,2.1&#10;&#9;&#9;C663.6,567.4,664.5,568.2,665.5,568.2z" transform="matrix(1, 0, 0, 1, 0, 0)"/><path fill="#151D38" d="M470.5,424.3c0-2.8,2.1-5,4.9-5.1c2.9-0.1,5.2,2.2,5.2,5.1c0,2.8-2.3,5-5.1,5&#10;&#9;&#9;C472.7,429.3,470.5,427.1,470.5,424.3z M475.5,426.3c1,0,2.1-1,2.1-2c0.1-1-0.9-2-1.9-2.1c-1.1-0.1-2.2,1-2.2,2.1&#10;&#9;&#9;C473.5,425.2,474.5,426.3,475.5,426.3z" transform="matrix(1, 0, 0, 1, 0, 0)"/><path fill="#151D38" d="M688.5,398.3c0-2.8,2.1-5,4.9-5.1c2.9,0,5.1,2,5.1,4.9c0.1,3-2.1,5.2-5,5.2&#10;&#9;&#9;C690.7,403.3,688.5,401.1,688.5,398.3z M693.6,396.2c-1,0-2,0.9-2.1,1.9c-0.1,1,0.8,2,1.9,2.1c1.1,0.1,2.2-0.9,2.2-2&#10;&#9;&#9;C695.6,397.2,694.6,396.2,693.6,396.2z" transform="matrix(1, 0, 0, 1, 0, 0)"/><path fill="#151D38" d="M1060.5,658.9c0,1.1-1,1.8-2.2,1.3c-1.2-0.5-2.3-1-3.5-1.6c-13.9-6.9-27.8-13.8-41.7-20.6&#10;&#9;&#9;c-23.5-11.6-47-23.3-70.4-34.9c-3.8-1.9-7.6-3.8-11.4-5.6c-0.4-0.2-0.9-0.4-1.3-0.7c-1.3-0.8-1.3-1.9,0-2.8&#10;&#9;&#9;c0.7-0.4,1.4-0.7,2.1-1.1c28.1-13.9,56.3-27.8,84.4-41.7c13.4-6.6,26.8-13.3,40.2-19.9c0.6-0.3,1.2-0.7,2-0.8&#10;&#9;&#9;c0.7-0.1,1.3,0.1,1.6,0.8c0.3,0.8,0.1,1.4-0.6,1.9c-0.7,0.4-1.4,0.8-2.1,1.1c-22.7,11.2-45.4,22.5-68.1,33.7&#10;&#9;&#9;c-17.6,8.7-35.2,17.4-52.9,26.1c-0.8,0.4-2.1,0.6-2.1,1.4c0,0.7,1.4,0.9,2.1,1.3c18.2,9,36.4,18,54.5,27c22.2,11,44.4,22,66.6,33&#10;&#9;&#9;c0.6,0.3,1.3,0.6,1.9,1C1060.2,658,1060.4,658.4,1060.5,658.9z" transform="matrix(1, 0, 0, 1, 0, 0)"/><path fill="#151D38" d="M976,447.7c-0.2,0.4-0.4,1-0.7,1.6c-5.5,11.1-11,22.2-16.5,33.3c-13.5,27.3-27,54.6-40.5,81.9&#10;&#9;&#9;c-1.7,3.5-3.5,7-5.2,10.5c-0.2,0.4-0.4,0.9-0.7,1.3c-0.9,1.4-2.1,1.5-2.9,0c-0.8-1.4-1.5-2.8-2.2-4.3&#10;&#9;&#9;c-7.3-14.7-14.5-29.4-21.8-44.1c-11.6-23.4-23.2-46.8-34.8-70.3c-1.4-2.9-2.8-5.7-4.2-8.6c-0.8-1.6-0.7-2.5,0.2-2.9&#10;&#9;&#9;c0.9-0.5,1.8,0,2.5,1.5c6.2,12.6,12.5,25.2,18.7,37.8c5.1,10.4,10.3,20.8,15.4,31.2c8.8,17.8,17.6,35.5,26.4,53.3&#10;&#9;&#9;c0.4,0.7,0.6,1.9,1.2,1.9c0.7,0,0.9-1.2,1.2-1.9c14.6-29.5,29.2-59,43.8-88.5c5.5-11.1,11-22.2,16.5-33.3c0.3-0.6,0.5-1.2,0.9-1.7&#10;&#9;&#9;c0.4-0.6,1.1-0.6,1.8-0.3C975.7,446.4,976,446.9,976,447.7z" transform="matrix(1, 0, 0, 1, 0, 0)"/><path fill="#151D38" d="M383.5,610.2c-8.4-0.7-16.9-1.5-25.3-2.2c-8.2-0.7-16.4-1.4-24.6-2.1c-5.2-0.4-10.4-0.9-15.5-1.4&#10;&#9;&#9;c-0.5,0-1.1,0-1.6-0.4c-0.9-0.8-0.5-2.1,0.9-2.5c2-0.7,4.1-1.2,6.2-1.8c17.8-5.1,35.6-10.2,53.4-15.3c0.5-0.2,1.1-0.3,1.6-0.5&#10;&#9;&#9;c0.2-0.1,0.5-0.1,0.4-0.4c0-0.1-0.2-0.2-0.4-0.3c-0.5-0.2-1.1-0.3-1.6-0.5c-19.3-5.6-38.7-11.1-58-16.7c-0.5-0.1-0.9-0.3-1.4-0.4&#10;&#9;&#9;c-0.9-0.2-1.7-0.7-1.5-1.8c0.1-1,0.9-1.2,1.8-1.3c3.1-0.3,6.2-0.6,9.3-0.9c8.8-0.8,17.5-1.5,26.3-2.3c8.4-0.7,16.7-1.4,25.1-2.1&#10;&#9;&#9;c1.9-0.2,3.8-0.4,5.7-0.5c1.7-0.1,2.4,0.3,2.4,1.2c0.1,1-0.6,1.5-2.2,1.6c-3.3,0.3-6.5,0.6-9.8,0.9c-15.5,1.3-30.9,2.6-46.4,3.9&#10;&#9;&#9;c-0.3,0-0.6,0.1-1,0.1c-0.2,0-0.3,0.1-0.2,0.3c0.1,0.1,0.1,0.3,0.3,0.4c0.6,0.2,1.2,0.4,1.8,0.6c18,5.2,36.1,10.3,54.1,15.5&#10;&#9;&#9;c0.8,0.2,1.5,0.4,2.3,0.7c0.7,0.2,1,0.7,1,1.5c0,0.6-0.4,1.1-0.9,1.3c-0.6,0.2-1.2,0.4-1.8,0.6c-18.1,5.2-36.2,10.4-54.4,15.6&#10;&#9;&#9;c-0.8,0.2-2.4,0.4-2.3,0.9c0.3,1,1.6,0.5,2.5,0.6c8.4,0.8,16.7,1.5,25.1,2.2c8.3,0.7,16.6,1.4,24.9,2.1c1.7,0.1,3.3,0.3,5,0.5&#10;&#9;&#9;c1.4,0.1,2,0.7,2,1.6c0,0.9-0.7,1.3-2.2,1.3C384.2,610.2,383.8,610.2,383.5,610.2z" transform="matrix(1, 0, 0, 1, 0, 0)"/><path fill="#151D38" d="M351.2,729.2c-10.3,0-20.6,0-30.9,0c-0.6,0-1.1,0-1.7,0c-2.3-0.1-2.6-0.3-2.6-2.7c0-8.2,0-16.5,0-24.7&#10;&#9;&#9;c0-1,0-1.9,0-2.9c0-1.7,0.4-2.3,1.4-2.3c1,0,1.5,0.6,1.5,2.2c0,2.6,0,5.3,0,7.9c0,5.8,0,11.7,0,17.5c0,2,0,2,2,2c9,0,17.9,0,26.9,0&#10;&#9;&#9;c2.1,0,2.2,0,2.2-2.4c0-7.9,0-15.8,0-23.7c0-0.6,0-1.3,0-1.9c0-0.9,0.3-1.6,1.4-1.6c1.1,0,1.5,0.7,1.5,1.7c0,0.6,0,1.1,0,1.7&#10;&#9;&#9;c0,7.8,0,15.5,0,23.3c0,0.6,0,1.1,0,1.7c0,0.9,0.4,1.3,1.3,1.3c0.6,0,1.3,0,1.9,0c9.1,0,18.2,0,27.3,0c0.7,0,1.4,0,2.2,0.1&#10;&#9;&#9;c0.6,0.1,1,0.5,1.1,1.1c0.1,0.7-0.2,1.2-0.9,1.5c-0.8,0.3-1.6,0.2-2.4,0.2C372.6,729.2,361.9,729.2,351.2,729.2z" transform="matrix(1, 0, 0, 1, 0, 0)"/><path fill="#151D38" d="M351.3,658.9c-10.6,0-21.1,0-31.7,0c-0.7,0-1.4,0-2.2-0.1c-0.9-0.1-1.5-0.5-1.5-1.5c0.1-1,0.8-1.3,1.7-1.4&#10;&#9;&#9;c0.6,0,1.3,0,1.9,0c20.4,0,40.8,0,61.2,0c3.4,0,3,0.4,3-3.1c0-7.8,0-15.7,0-23.5c0-0.6,0-1.3,0.1-1.9c0.1-0.7,0.6-1.1,1.3-1.1&#10;&#9;&#9;c0.7,0,1.2,0.4,1.4,1.1c0.1,0.6,0.1,1.3,0.1,1.9c0,8.9,0,17.7,0,26.6c0,2.7-0.3,3-3,3C372.9,658.9,362.1,658.9,351.3,658.9z" transform="matrix(1, 0, 0, 1, 0, 0)"/><path fill="#151D38" d="M351.3,683.6c-10.6,0-21.2,0-31.9,0c-0.7,0-1.4,0-2.2-0.1c-0.8-0.1-1.3-0.7-1.2-1.5c0-0.7,0.5-1.2,1.2-1.3&#10;&#9;&#9;c0.6-0.1,1.3-0.1,1.9-0.1c21.5,0,43,0,64.5,0c0.6,0,1.3,0,1.9,0.1c0.7,0.1,1.1,0.6,1.1,1.3c0,0.7-0.4,1.3-1.1,1.4&#10;&#9;&#9;c-0.7,0.1-1.4,0.1-2.1,0.1C372.7,683.6,362,683.6,351.3,683.6z" transform="matrix(1, 0, 0, 1, 0, 0)"/><path fill="#151D38" d="M600.2,630c0,1.4,0.1,2.9,0,4.3c-0.2,3.5-2.8,6-6.1,6.1c-3.4,0.1-6.1-2.3-6.4-5.8c-0.3-3-0.3-6.1,0-9.1&#10;&#9;&#9;c0.3-3.5,3-5.8,6.4-5.7c3.4,0.1,5.9,2.6,6.1,6.1C600.2,627.3,600.2,628.7,600.2,630C600.2,630,600.2,630,600.2,630z" transform="matrix(1, 0, 0, 1, 0, 0)"/><path fill="#FFFFFF" d="M590.5,630C590.5,630,590.5,630,590.5,630c0,1.2,0,2.4,0,3.6c0,0.2,0,0.3,0,0.5c0.2,2,1.6,3.4,3.3,3.5&#10;&#9;&#9;c1.8,0.1,3.4-1.4,3.5-3.5c0.1-2.6,0.1-5.3,0-7.9c-0.1-2-1.6-3.3-3.4-3.3c-1.8,0-3.2,1.4-3.4,3.4C590.4,627.4,590.5,628.7,590.5,630&#10;&#9;&#9;z" transform="matrix(1, 0, 0, 1, 0, 0)"/><path fill="#151D38" d="M605.4,630.2c0-1.4-0.1-2.9,0-4.3c0.2-3.5,2.8-5.9,6.2-6c3.4,0,6.1,2.3,6.3,5.8c0.2,2.9,0.2,5.9,0,8.8&#10;&#9;&#9;c-0.2,3.5-2.9,5.9-6.3,5.9c-3.5,0-6.1-2.6-6.3-6.2C605.4,632.9,605.4,631.5,605.4,630.2C605.4,630.2,605.4,630.2,605.4,630.2z" transform="matrix(1, 0, 0, 1, 0, 0)"/><path fill="#FFFFFF" d="M615.2,630.1c0-1.2,0-2.4,0-3.6c-0.1-2.2-1.4-3.6-3.3-3.7c-1.9-0.1-3.5,1.4-3.6,3.7c-0.1,2.4-0.1,4.8,0,7.2&#10;&#9;&#9;c0.1,2.3,1.5,3.9,3.4,3.9c1.9,0,3.3-1.6,3.4-3.8C615.2,632.5,615.2,631.3,615.2,630.1z" transform="matrix(1, 0, 0, 1, 0, 0)"/><path fill="#151D38" d="M551.8,734.4c0-1.4-0.1-2.7,0-4.1c0.2-3.5,2.8-6,6.1-6.2c3.2-0.1,6,2.1,6.4,5.5c0.4,3.2,0.4,6.5,0,9.8&#10;&#9;&#9;c-0.5,3.5-3.1,5.4-6.6,5.2c-3.2-0.1-5.6-2.4-5.9-5.8C551.7,737.4,551.8,735.9,551.8,734.4C551.8,734.4,551.8,734.4,551.8,734.4z" transform="matrix(1, 0, 0, 1, 0, 0)"/><path fill="#FFFFFF" d="M561.5,734.5C561.6,734.5,561.6,734.5,561.5,734.5c0-1.2,0.1-2.4,0-3.6c-0.2-2.3-1.6-3.8-3.5-3.8&#10;&#9;&#9;c-1.8,0-3.3,1.5-3.4,3.7c-0.1,2.5-0.1,4.9,0,7.4c0.1,2.2,1.5,3.5,3.4,3.6c2,0,3.3-1.2,3.5-3.5C561.6,737.1,561.5,735.8,561.5,734.5&#10;&#9;&#9;z" transform="matrix(1, 0, 0, 1, 0, 0)"/><path fill="#151D38" d="M582.3,734.6c0,1.4,0.1,2.7,0,4.1c-0.2,3.4-2.6,5.8-5.7,6c-3.6,0.2-6.3-1.7-6.8-5.2c-0.5-3.3-0.5-6.7,0-10&#10;&#9;&#9;c0.5-3.2,3.3-5.4,6.4-5.3c3.2,0.2,5.8,2.6,6.1,5.9C582.4,731.6,582.3,733.1,582.3,734.6C582.3,734.6,582.3,734.6,582.3,734.6z" transform="matrix(1, 0, 0, 1, 0, 0)"/><path fill="#FFFFFF" d="M579.4,734.5c0-1.4,0.1-2.9,0-4.3c-0.2-1.9-1.7-3.1-3.4-3.1c-1.7,0-3,1.2-3.3,3.2c0,0.2-0.1,0.3-0.1,0.5&#10;&#9;&#9;c0,2.5,0,4.9,0,7.4c0,0.2,0.1,0.5,0.1,0.7c0.4,1.8,1.5,2.9,3.3,2.9c1.7,0,3-1,3.4-2.7C579.7,737.6,579.4,736,579.4,734.5z" transform="matrix(1, 0, 0, 1, 0, 0)"/><path fill="#151D38" d="M551.7,630.2c0-1.4-0.1-2.7,0-4.1c0.2-3.6,2.6-6.1,6-6.3c3.5-0.2,6.3,2.1,6.7,5.8c0.3,2.9,0.3,5.9,0,8.8&#10;&#9;&#9;c-0.3,3.7-3.1,6.1-6.5,6c-3.4-0.1-5.9-2.7-6.1-6.4C551.7,632.8,551.7,631.5,551.7,630.2C551.7,630.2,551.7,630.2,551.7,630.2z" transform="matrix(1, 0, 0, 1, 0, 0)"/><path fill="#FFFFFF" d="M561.5,630.2c0-1.3,0.1-2.6,0-3.8c-0.2-2.2-1.6-3.6-3.5-3.6c-1.7,0-3.2,1.4-3.4,3.4c-0.2,2.6-0.2,5.3,0,7.9&#10;&#9;&#9;c0.1,2,1.6,3.4,3.3,3.5c1.8,0.1,3.3-1.4,3.5-3.5C561.6,632.7,561.5,631.5,561.5,630.2z" transform="matrix(1, 0, 0, 1, 0, 0)"/><path fill="#151D38" d="M582.4,630.1c0,1.4,0.1,2.7,0,4.1c-0.2,3.5-2.7,6.1-6,6.2c-3.4,0.1-6.1-2.1-6.6-5.6c-0.4-3.1-0.4-6.2,0-9.3&#10;&#9;&#9;c0.5-3.7,3.2-5.9,6.8-5.6c3.3,0.2,5.7,2.8,5.8,6.4C582.4,627.6,582.4,628.9,582.4,630.1z" transform="matrix(1, 0, 0, 1, 0, 0)"/><path fill="#FFFFFF" d="M579.5,630.3c0-1.5,0.1-2.6,0-3.7c-0.2-2.3-1.6-3.8-3.5-3.8c-1.8,0-3.2,1.5-3.4,3.7c-0.1,2.5,0,4.9,0,7.4&#10;&#9;&#9;c0,0.2,0.1,0.5,0.1,0.7c0.4,1.7,1.7,2.9,3.3,3c1.5,0,2.8-1,3.3-2.6C579.7,633.3,579.4,631.6,579.5,630.3z" transform="matrix(1, 0, 0, 1, 0, 0)"/><path fill="#151D38" d="M623.3,630c0-1.3-0.1-2.6,0-3.8c0.2-3.7,2.7-6.2,6.2-6.3c3.5-0.1,6.2,2.3,6.5,6c0.2,2.8,0.2,5.7,0,8.6&#10;&#9;&#9;c-0.3,3.8-3.2,6.2-6.7,6c-3.4-0.2-5.8-2.9-6-6.6C623.2,632.6,623.2,631.3,623.3,630C623.3,630,623.3,630,623.3,630z" transform="matrix(1, 0, 0, 1, 0, 0)"/><path fill="#FFFFFF" d="M626.1,630C626.1,630,626.1,630,626.1,630c0,1.3-0.1,2.6,0,3.8c0.2,2.3,1.7,3.8,3.6,3.7&#10;&#9;&#9;c1.8-0.1,3.2-1.5,3.3-3.7c0.1-2.5,0.1-5,0-7.4c-0.1-2.2-1.6-3.6-3.4-3.6c-1.8,0-3.3,1.4-3.5,3.6C626.1,627.6,626.1,628.8,626.1,630&#10;&#9;&#9;z" transform="matrix(1, 0, 0, 1, 0, 0)"/><path fill="#151D38" d="M653.9,630.1c0,1.4,0.1,2.7,0,4.1c-0.2,3.5-2.7,6.1-6,6.3c-3.4,0.2-6.1-2.1-6.6-5.6c-0.4-3.2-0.4-6.4,0-9.5&#10;&#9;&#9;c0.5-3.5,3.3-5.6,6.7-5.4c3.2,0.2,5.6,2.8,5.8,6.2C653.9,627.4,653.9,628.8,653.9,630.1C653.9,630.1,653.9,630.1,653.9,630.1z" transform="matrix(1, 0, 0, 1, 0, 0)"/><path fill="#FFFFFF" d="M651,630.4c0-1.3,0-2.3,0-3.4c0-0.6-0.1-1.3-0.3-1.9c-0.5-1.5-1.8-2.4-3.2-2.4c-1.5,0-3,1.1-3.2,2.7&#10;&#9;&#9;c-0.4,3.1-0.4,6.2,0,9.3c0.2,1.6,1.7,2.7,3.2,2.8c1.5,0,2.8-1,3.3-2.6C651.2,633.4,650.9,631.8,651,630.4z" transform="matrix(1, 0, 0, 1, 0, 0)"/><path fill="#151D38" d="M452.5,672.7c4.9,0.6,9.8,1.1,14.6,1.6c2.2,0.3,4.4,0.5,6.7,0.8c0.6,0.1,1.3,0.1,1.9,0.3&#10;&#9;&#9;c0.6,0.1,1.1,0.4,1.2,1c0.1,0.7,0,1.3-0.6,1.7c-0.5,0.3-1,0.6-1.5,0.8c-3.5,1.9-7,3.8-10.5,5.7c-0.6,0.3-1.6,0.6-1.6,1.2&#10;&#9;&#9;c0,0.4,1.1,0.8,1.7,1.2c3.4,1.9,6.9,3.8,10.3,5.6c0.5,0.3,1,0.5,1.5,0.8c0.6,0.4,0.9,0.9,0.8,1.6c-0.1,0.7-0.6,1.1-1.3,1.2&#10;&#9;&#9;c-2.1,0.3-4.1,0.5-6.2,0.8c-5.5,0.6-11,1.3-16.4,1.9c-0.3,0-0.6,0.1-1,0.1c-0.9,0-1.5-0.4-1.6-1.4c0-0.9,0.5-1.3,1.3-1.4&#10;&#9;&#9;c2.4-0.3,4.8-0.6,7.1-0.9c3.3-0.4,6.7-0.7,10-1.1c0.4,0,0.9-0.1,0.9-0.5c0-0.2-0.4-0.5-0.7-0.6c-3-1.7-6-3.3-9-4.9&#10;&#9;&#9;c-0.6-0.3-1.2-0.6-1.7-1c-1.1-0.9-1.1-1.9,0.1-2.7c0.9-0.6,2-1.1,2.9-1.6c2.6-1.4,5.2-2.8,7.8-4.3c0.3-0.1,0.6-0.3,0.5-0.7&#10;&#9;&#9;c-0.1-0.4-0.5-0.3-0.8-0.4c-5.4-0.6-10.8-1.2-16.2-1.9c-0.2,0-0.3,0-0.5,0c-1.4-0.2-2-0.7-1.9-1.6&#10;&#9;&#9;C450.6,672.5,451.6,672.6,452.5,672.7z" transform="matrix(1, 0, 0, 1, 0, 0)"/><path fill="#151D38" d="M452.7,703.8c5,0.6,9.8,1.1,14.7,1.6c2.3,0.3,4.6,0.5,6.9,0.8c0.6,0.1,1.1,0.1,1.6,0.3&#10;&#9;&#9;c1.2,0.4,1.4,1.6,0.5,2.5c-0.5,0.4-1.1,0.7-1.6,1c-3.6,2-7.3,4-10.9,6c-1.6,0.9-1.6,1,0,1.8c3.7,2,7.4,4.1,11.1,6.1&#10;&#9;&#9;c0.5,0.3,1,0.5,1.4,0.8c1,0.9,0.7,2.2-0.6,2.6c-0.7,0.2-1.4,0.2-2.1,0.3c-7,0.8-14,1.6-20.9,2.4c-0.3,0-0.6,0.1-1,0&#10;&#9;&#9;c-0.7-0.1-1.2-0.4-1.3-1.2c-0.1-0.8,0.2-1.5,1.1-1.6c2.2-0.3,4.4-0.6,6.6-0.9c3.5-0.4,7-0.8,10.5-1.2c0.4,0,1.1,0,1.1-0.5&#10;&#9;&#9;c0.1-0.4-0.5-0.5-0.9-0.7c-2.9-1.6-5.9-3.2-8.8-4.8c-0.5-0.3-1-0.5-1.5-0.8c-1.4-0.9-1.4-2.1,0.1-2.9c2.3-1.4,4.8-2.6,7.1-3.9&#10;&#9;&#9;c0.6-0.3,1.3-0.6,1.9-1c0.7-0.5,2.1-0.6,1.9-1.5c-0.2-0.8-1.5-0.4-2.3-0.5c-4.8-0.6-9.7-1.2-14.5-1.7c-0.4,0-0.8-0.1-1.2-0.1&#10;&#9;&#9;c-0.8-0.2-1.2-0.7-1.2-1.6c0.1-0.9,0.6-1.2,1.5-1.2C452.2,703.8,452.5,703.8,452.7,703.8z" transform="matrix(1, 0, 0, 1, 0, 0)"/><path fill="#151D38" d="M475.7,659.4c0,1.3,0,2.6,0,3.8c0,0.5,0,1-0.1,1.4c-0.2,0.9-0.7,1.5-1.6,1.4c-0.9-0.1-1.2-0.7-1.2-1.5&#10;&#9;&#9;c0-1.3,0-2.6,0-3.8c0-1.3,0-2.6,0-3.8c0-1-0.4-1.4-1.4-1.5c-4.3-0.3-4.4-0.4-4.6,3.9c-0.4,6.9-6.9,10.1-12.3,7.2&#10;&#9;&#9;c-3.2-1.7-4.9-5.2-4.5-9.3c0.3-3.4,2.8-6.3,6.1-7.3c0.8-0.2,1.6-0.3,2.4-0.3c0.8,0,1.4,0.5,1.5,1.3c0.1,0.8-0.4,1.3-1.2,1.5&#10;&#9;&#9;c-0.7,0.2-1.4,0.2-2.1,0.4c-2.4,0.8-3.8,3.1-3.7,5.8c0.1,2.6,1.7,5,4,5.7c3.3,1,6.5-1,6.9-4.6c0.2-1.7,0.1-3.3,0.2-5&#10;&#9;&#9;c0.1-1.9,0.4-2.2,2.3-2.2c2.4,0,4.8,0,7.2,0c1.7,0,2.2,0.4,2.2,2.1C475.8,656.2,475.7,657.8,475.7,659.4&#10;&#9;&#9;C475.7,659.4,475.7,659.4,475.7,659.4z" transform="matrix(1, 0, 0, 1, 0, 0)"/><path fill="#151D38" d="M475.7,637.2c0,1.5,0,3,0,4.6c0,1,0.1,2-1,2.5c-1,0.4-1.7-0.3-2.3-0.8c-1.1-0.9-2.2-1.8-3.3-2.8&#10;&#9;&#9;c-0.8-0.7-1.1-0.5-1.6,0.4c-1.4,2.8-3.8,4.5-6.9,4.9c-4.7,0.7-9.4-2.8-10.1-7.4c-0.7-5.2,2.6-9.9,7.5-10.5c1.7-0.2,2.6,0.1,2.8,1.1&#10;&#9;&#9;c0.2,1-0.3,1.4-2.2,1.8c-3.3,0.7-5.4,3.2-5.3,6.4c0.1,3,2.4,5.4,5.5,5.7c3,0.4,5.9-1.7,6.6-4.7c0.1-0.4,0.1-0.8,0.1-1.2&#10;&#9;&#9;c0.4-1.7,1.4-2.1,2.8-1.1c1.2,0.8,2.2,1.8,3.3,2.7c0.2,0.2,0.6,0.5,0.8,0.4c0.4-0.1,0.4-0.6,0.4-1c0-1.8,0-3.5,0-5.3&#10;&#9;&#9;c0-0.6,0-1.1,0-1.7c0.1-0.8,0.4-1.4,1.3-1.4c0.9,0,1.3,0.5,1.5,1.3c0.1,0.6,0.1,1.3,0.1,1.9C475.7,634.5,475.7,635.9,475.7,637.2z" transform="matrix(1, 0, 0, 1, 0, 0)"/><path fill="#151D38" d="M524.7,746.8c-1.7-0.1-3-0.2-4.3-0.6c-3.9-1.2-6.2-4.3-6.1-8.2c0.1-3.7,2.5-6.7,6.4-7.7&#10;&#9;&#9;c2.4-0.6,4.7-0.7,7.1-0.1c4.2,1.1,6.7,4.1,6.6,8.2c-0.1,4-2.7,7.1-6.9,8C526.5,746.7,525.4,746.7,524.7,746.8z M524.3,743.8&#10;&#9;&#9;c1.5,0,2.8-0.2,4.2-0.8c1.9-0.9,2.9-2.5,3-4.5c0-2.2-1-3.9-2.9-4.8c-2.7-1.3-5.6-1.3-8.3,0c-2,0.9-3,2.6-3,4.8&#10;&#9;&#9;c0,2.2,1.2,3.8,3.2,4.7C521.6,743.7,523,743.9,524.3,743.8z" transform="matrix(1, 0, 0, 1, 0, 0)"/><path fill="#151D38" d="M524.4,709.9c1.6,0,3.2,0.2,4.7,0.8c3.3,1.3,5.2,4.1,5.3,7.5c0,3.5-1.7,6.3-5.1,7.7&#10;&#9;&#9;c-2.7,1.1-5.6,1.3-8.4,0.5c-4.2-1.1-6.7-4.2-6.6-8.3c0.1-4,2.9-7.1,7-7.9C522.3,710,523.4,710,524.4,709.9z M524.3,712.9&#10;&#9;&#9;c-1.7-0.1-3.3,0.2-4.7,1.2c-3.2,2-3.2,6.7,0,8.6c3,1.8,6.2,1.9,9.3,0.2c3.6-2,3.5-6.9-0.1-9C527.4,713,525.9,712.8,524.3,712.9z" transform="matrix(1, 0, 0, 1, 0, 0)"/><path fill="#151D38" d="M524.3,706.7c-2.4,0-4.8,0-7.2,0c-0.6,0-1.1,0-1.7-0.1c-0.7-0.2-1.1-0.7-1.1-1.4c0-0.7,0.5-1.2,1.2-1.3&#10;&#9;&#9;c0.6-0.1,1.3-0.1,1.9-0.1c3.6,0,7.2,0,10.8,0c0.4,0,0.9,0.1,1-0.4c0-0.2-0.2-0.6-0.4-0.8c-1-1.3-2.1-2.6-3.2-3.9&#10;&#9;&#9;c-0.3-0.4-0.7-0.9-1-1.4c-0.4-0.6-0.2-1.3,0.3-1.7c0.6-0.5,1.3-0.5,2,0c0.2,0.2,0.4,0.5,0.6,0.7c2,2.4,3.9,4.9,5.9,7.3&#10;&#9;&#9;c0.5,0.6,1.1,1.3,0.7,2.1c-0.4,1-1.4,1-2.3,1C529.4,706.7,526.8,706.7,524.3,706.7z" transform="matrix(1, 0, 0, 1, 0, 0)"/>
</svg>