<?xml version="1.0" encoding="utf-8"?>
<svg id="master-artboard" viewBox="0 0 1400 980" version="1.1" xmlns="http://www.w3.org/2000/svg" x="0px" y="0px" style="enable-background:new 0 0 1400 980;" width="1400px" height="980px">

<path class="st0" d="M879.8,214.4c0.5,1.3,0.5,2.7,0.5,4.1c0.2,7.7,2.5,14.5,8.1,20c3.9,3.7,8.7,5.6,13.8,6.5&#10;&#9;&#9;c2.2,0.4,4.4,0.6,6.6,0.6c0.6,0,1.2,0,1.7,0.2c0.6,0.3,0.8,0.8,0.8,1.4c0,0.6-0.3,1.2-0.9,1.3c-0.6,0.1-1.3,0.2-1.9,0.2&#10;&#9;&#9;c-3.3,0.1-6.6,0.5-9.7,1.4c-10.4,3.1-16.1,10.3-18.1,20.7c-0.4,1.9-0.7,3.9-0.5,5.9c0,0.4,0,0.8-0.1,1.2c-0.1,1.3-0.8,2.1-1.7,2&#10;&#9;&#9;c-1.1-0.2-1.4-1-1.4-2c0.1-2.9-0.2-5.7-0.8-8.6c-2.4-10.8-9.8-17.9-20.7-19.9c-2.3-0.4-4.6-0.6-6.9-0.7c-0.4,0-0.8,0-1.2,0&#10;&#9;&#9;c-0.9-0.1-1.6-0.5-1.6-1.5c0-1,0.6-1.5,1.6-1.6c1.1-0.1,2.1-0.1,3.2-0.1c3.5-0.2,6.9-0.8,10.1-2c8.4-3.2,13.3-9.4,15.4-17.9&#10;&#9;&#9;c0.7-2.6,1.1-5.3,0.9-8.1c0-1.1,0-2.1,0.6-3.1C878.5,214.4,879.1,214.4,879.8,214.4z M878.7,265c0.3,0,0.3,0,0.7-0.9&#10;&#9;&#9;c3.1-8.1,8.7-13.6,16.9-16.4c0.3-0.1,0.6-0.3,0.9-0.4c-0.3-0.2-0.6-0.5-1-0.6c-8.1-2.8-13.6-8.3-16.7-16.3&#10;&#9;&#9;c-0.2-0.4-0.2-1.1-0.8-1.1c-0.2,0-0.4,0.6-0.5,1c-3,7.9-8.5,13.4-16.5,16.2c-0.3,0.1-0.6,0.2-0.9,0.4c-0.3,0.2-0.6,0.4,0,0.6&#10;&#9;&#9;c0.5,0.2,1.1,0.4,1.6,0.6c6.5,2.6,11.5,6.9,14.6,13.3c0.5,1,0.9,2.1,1.4,3.2C878.4,264.7,878.4,265,878.7,265z" style="fill: rgb(22, 29, 56);" transform="matrix(1, 0, 0, 1, 0, 0)"/><path class="st0" d="M700,765.6c-130,0-260,0-389.9,0c-0.8,0-1.6,0-2.5,0c-1,0-1.6-0.5-1.7-1.4c0-1,0.6-1.5,1.5-1.6&#10;&#9;&#9;c0.7,0,1.3,0,2,0c10.9,0,21.9,0,32.8,0c2.7,0,2.8,0,2.5-2.7c-0.5-5.2-1-10.5-1.5-15.7c-0.2-2.1-0.2-2.1-2.4-2.2&#10;&#9;&#9;c-1.2,0-2.3-0.1-3.5,0c-6.4,0.4-13.5-6-10.9-14.8c0.4-1.2,0.5-1.9-0.8-2.8c-5.5-4.1-6.4-11.1-2.2-16.5c0.8-1.1,0.8-1.5-0.2-2.5&#10;&#9;&#9;c-6.1-5.8-7.9-12.9-5.3-20.7c2.6-7.8,8.3-12.2,16.5-13.4c1.8-0.3,1.8-0.2,1.6-2.1c-0.5-5.9-1.1-11.8-1.6-17.7&#10;&#9;&#9;c-0.1-1.3-0.5-1.9-1.9-1.9c-2,0-2.1-0.3-2.2-2.1c0-1.6,0-3.1,0-4.7c0.1-1.5,0.4-1.9,1.9-2c0.8-0.1,1.6,0,2.5,0c2.1,0,2.1,0,2.7-1.9&#10;&#9;&#9;c0.4-1.3,0.8-2.5,1.2-3.8c0.8-2.5,0.8-2.5,3.4-2.5c9.1,0,18.3,0,27.4,0c2.7,0,5.4-0.1,8.1,0c1.4,0.1,2-0.5,2.3-1.9&#10;&#9;&#9;c2.7-11.1,5.5-22.2,8.2-33.3c5-20,9.9-40.1,14.9-60.1c0.1-0.6,0.3-1.1,0.5-1.7c0.3-0.9,1-1.3,1.9-1.1c2.7,0.6,5.4,1.3,8.1,2&#10;&#9;&#9;c1.2,0.3,1.4,1,1.1,2.6c-0.8,3.4-1.7,6.9-2.5,10.3c-6.7,26.8-13.3,53.6-20,80.4c-0.6,2.6-0.6,2.6,2.1,2.6c9.1,0,18.1,0,27.2,0&#10;&#9;&#9;c0.5,0,1,0,1.5,0c0.8,0,1.2-0.3,1.2-1.2c0-0.6,0-1.2,0-1.7c0-5.4,0-10.7,0-16.1c0.1-14.7,5.3-27.5,15-38.4&#10;&#9;&#9;c6.4-7.2,14.3-12.3,23.4-15.6c2.1-0.7,2.1-0.8,1.4-2.9c-4.4-15.3-8.8-30.7-13.2-46c-0.6-2-0.6-2-2.9-2&#10;&#9;&#9;c-13.6,0.5-24.9-8.3-27.9-21.4c-3.7-16.7,9.2-32.8,26.2-32.9c1.5,0,3-0.1,4.4,0.3c1.2,0.3,1.5-0.2,1.8-1.3&#10;&#9;&#9;c1.7-7.3,3.9-14.4,6.7-21.4c4.5-11.1,10.4-21.4,17.9-30.9c1.6-2,1.6-2.1-0.9-2.9c-3.5-1.2-6.9-2.6-10.3-4.1&#10;&#9;&#9;c-0.5-0.2-1.1-0.5-1.5-0.8c-0.9-0.6-1.2-1.4-0.5-2.3c0.5-0.7,1.1-1.5,1.7-2.1c19.9-23.8,44.9-39.5,75.3-45.6&#10;&#9;&#9;c40.7-8.2,77.8,0.5,110.5,26.2c19.2,15,32.9,34.3,41.7,57.1c3,7.8,6.1,15.4,8,23.6c0.3,1.1,0.6,2.2,0.8,3.4c0.2,1,0.5,1.4,1.6,1.2&#10;&#9;&#9;c7.4-1.1,14.2,0.5,20.3,5c1.2,0.9,1.7,0.4,2.3-0.6c4.4-6.5,9.5-12.4,15.1-17.9c16.9-16.4,36.8-27.2,59.8-32.3&#10;&#9;&#9;c8.6-1.9,17.4-2.9,26.2-2.8c23.5,0.1,45.4,6.2,65.2,18.9c27.5,17.6,45.4,42.2,53.7,73.8c0.1,0.4,0.3,0.8,0.3,1.2&#10;&#9;&#9;c0.1,1,0.7,1.4,1.7,1.2c1.8-0.3,3.6-0.3,5.4-0.1c11.6,1.1,20.4,10.9,20.7,22.6c0.3,10.5-7.2,20.9-18.6,23.2&#10;&#9;&#9;c-1.6,0.3-3.3,0.3-4.9,0.4c-2,0-2.1,0-2.3,2c-0.6,4.6-1.5,9.3-2.5,13.8c-0.5,2.1-0.5,2.1,1.3,3.4c11.8,8.3,19.5,19.4,23.2,33.3&#10;&#9;&#9;c1.4,5.1,1.8,10.3,1.8,15.6c0,26.4,0,52.8,0,79.3c0,0.6,0,1.2,0,1.7c0,0.4-0.3,1.1,0.3,1.3c0.5,0.1,0.6-0.7,0.8-1.1&#10;&#9;&#9;c2.1-3.9,5.3-6.4,9.8-7.2c1.1-0.2,1.6-0.7,2-1.8c3.5-8.5,13-11.3,20.7-6.3c1.1,0.7,1.7,0.7,2.8,0c5.3-3.6,11.4-3.4,16.5,0.6&#10;&#9;&#9;c1,0.7,1.9,1.1,3.1,1.2c7.1,0.2,12.6,5.3,13.2,12.4c0.1,1.4,0.5,2,1.9,2.3c5,1.2,8.2,4.3,9.9,9.1c0.4,1.1,0.6,1.5,1.8,0.6&#10;&#9;&#9;c1.4-1,2.5-0.3,2.6,1.5c0.1,0.7,0,1.3,0,2c0,16.3,0,32.6,0,48.9c0,2.9-0.2,2.7,2.6,2.7c10.1,0,20.3,0,30.4,0c0.7,0,1.3,0,2,0&#10;&#9;&#9;c1,0.1,1.5,0.6,1.5,1.6c0,0.8-0.6,1.4-1.4,1.4c-0.7,0-1.3,0-2,0c-11.3,0-22.6,0-33.8,0C937.9,765.6,818.9,765.6,700,765.6z" style="fill: rgb(22, 29, 56);" transform="matrix(1, 0, 0, 1, 0, 0)"/><path class="st1" d="M577.2,680.8c23.6,0,47.2,0,70.9,0c0.7,0,1.3,0,2,0c1,0.1,1.5-0.3,1.7-1.3c0.1-0.5,0.3-0.9,0.4-1.4&#10;&#9;&#9;c12.7-43.9,25.4-87.8,38.1-131.7c0.7-2.3,0.6-2.3-1.2-3.8c-7.5-6.1-10.3-13.9-8.4-23.3c2.2-10.9,12.5-19.2,24.8-18&#10;&#9;&#9;c2.1,0.2,2.1,0.2,2.6-1.8c1.9-7.6,4.5-15,7.8-22.1c1.7-3.6,1.5-4.3-2.2-6.1c-0.6-0.3-1.2-0.5-1.8-0.7c-1.1-0.4-2.3-0.4-3.4-0.6&#10;&#9;&#9;c-0.8-0.1-1.4-0.6-1.4-1.5c0-1,0.6-1.5,1.5-1.6c0.6,0,1.1,0,1.7,0.1c2.8,0.4,5.4,1.4,7.6,3.3c0.8,0.6,1.2,0.6,1.7-0.3&#10;&#9;&#9;c1-1.9,2.1-3.7,3.2-5.5c0.5-0.9,0.5-1.4-0.4-2c-2.5-1.8-5.2-3.2-8.1-4c-4-1.1-7.9-1.2-12-0.2c-1.9,0.4-2.3,0.2-2.8-1.7&#10;&#9;&#9;c-0.1-0.6-0.3-1.1-0.4-1.7c-1.5-7-3.7-13.8-6.2-20.5c-0.8-2-1.9-2.7-3.9-3c-18.1-2.9-34.8-9.5-50.2-19.4&#10;&#9;&#9;c-13.6-8.8-25.2-19.7-34.9-32.8c-1.1-1.5-1.2-1.5-2.6-0.4c-0.2,0.1-0.4,0.3-0.6,0.4c-22.9,17.1-48.7,26-77.3,26.7&#10;&#9;&#9;c-13.1,0.3-26.1-1.3-38.8-5c-1.8-0.5-2.9-0.4-4.2,1.2c-6.1,7.7-11.3,16-15.5,24.9c-4.3,9.2-7.5,18.8-9.6,28.7&#10;&#9;&#9;c-0.6,3-0.7,2.9-3.6,2.4c-2.8-0.5-5.5-0.7-8.3-0.3c-11.6,1.7-20.2,11.2-20.6,23.2c-0.4,11.7,7.7,21.5,18.5,24&#10;&#9;&#9;c2.9,0.7,5.8,0.9,8.8,0.4c2.2-0.4,2.5-0.1,3.2,2c0.1,0.3,0.2,0.6,0.3,0.9c3.4,11.8,6.8,23.7,10.3,35.5&#10;&#9;&#9;c10.6,36.6,21.1,73.1,31.7,109.7c2.4,8.4,4.8,16.7,7.2,25.1c0.6,2,0.6,2,2.7,2c0.5,0,1,0,1.5,0&#10;&#9;&#9;C530.3,680.8,553.7,680.8,577.2,680.8z" style="fill: rgb(252, 226, 216);" transform="matrix(1, 0, 0, 1, 0, 0)"/><path class="st1" d="M950.3,544.3c0.2,0,0.5,0,0.7,0c13.2,0,22.8-12.4,19.6-25.2c-2.6-10.2-13-16.7-23.3-14.6&#10;&#9;&#9;c-2.5,0.5-2.7,0.4-3.4-2.1c-0.8-2.9-1.6-5.7-2.3-8.6c-0.3-1.3-1-1.8-2.4-2c-12.7-2-24.8-5.9-36.2-11.7c-17.1-8.8-31.5-20.9-43-36.3&#10;&#9;&#9;c-1.2-1.6-1.2-1.6-2.8-0.3c-6.9,5.2-14.1,9.6-21.9,13.2c-22,10.2-45,13.6-69.1,10.4c-11.3-1.5-22.2-4.7-32.6-9.3&#10;&#9;&#9;c-2.2-1-1.9-1-3.3,0.9c-3.7,5.1-7,10.5-9.9,16.2c-4.4,8.8-7.7,18-9.9,27.5c-0.6,2.4-0.9,2.6-3.2,2.1c-1.6-0.4-3.3-0.4-4.9-0.4&#10;&#9;&#9;c-9.5,0-20.3,8.6-19.2,21.8c1,11.4,11.6,19.4,22.2,17.9c2.6-0.4,2.9-0.2,3.2,2.3c0.7,4.9,1.5,9.8,2.5,14.6&#10;&#9;&#9;c4.5,20.4,13.7,38.5,26.5,54.9c8.5,10.9,18.1,20.7,27.6,30.6c5.5,5.8,10.9,11.7,15.4,18.3c5.5,8,9.1,16.6,8.9,26.4&#10;&#9;&#9;c-0.1,2.1,0,2.1,2.1,2.2c0.2,0,0.5,0,0.7,0c23.2,0,46.4,0,69.6,0c0.6,0,1.2,0,1.7,0c0.8,0,1.2-0.4,1.2-1.2c0-0.6,0-1.2,0-1.7&#10;&#9;&#9;c-0.2-6.3,1.4-12.2,4.2-17.8c2.7-5.7,6.5-10.7,10.5-15.5c6.4-7.6,13.4-14.5,20.2-21.7c8.9-9.5,17.5-19.2,24.6-30.2&#10;&#9;&#9;c11.5-17.6,18.6-36.8,21.1-57.6c0.4-3.3,0.4-3.3,3.8-3.3C949.6,544.3,949.9,544.3,950.3,544.3z" style="fill: rgb(252, 226, 216);" transform="matrix(1, 0, 0, 1, 0, 0)"/><path class="st2" d="M578.1,762.6c39.5,0,79,0,118.5,0c0.7,0,1.5,0,2.2,0c0.9,0,1.4-0.3,1.4-1.3c0-0.6,0-1.2,0-1.7&#10;&#9;&#9;c0-9.8,0-19.6,0-29.4c0-2.6-0.2-5.1-0.7-7.6c-3.8-22.2-23.1-38.7-45.5-38.7c-50.6-0.1-101.2,0-151.8,0c-5,0-9.8,0.8-14.5,2.4&#10;&#9;&#9;c-19,6.5-31.7,24.2-31.7,44.4c0,9.5,0,19.1,0,28.6c0,3.6-0.4,3.2,3.1,3.2C498.8,762.6,538.5,762.6,578.1,762.6z" style="fill: rgb(251, 241, 142);" transform="matrix(1, 0, 0, 1, 0, 0)"/><path class="st3" d="M388.5,649.6c-16,0-31.9,0-47.9,0c-0.7,0-1.3,0-2,0c-0.8,0-1.2,0.4-1.1,1.2c0,0.4,0.1,0.8,0.1,1.2&#10;&#9;&#9;c0.6,6.6,1.2,13.1,1.8,19.7c0.5,4.8,1,9.7,1.4,14.5c0.1,1,0.5,1.5,1.5,1.4c0.6,0,1.2,0,1.7,0c7.3,0,14.7,0,22,0&#10;&#9;&#9;c5.1,0,9.3,2.9,10.9,7.4c1.7,4.7,0.4,9.7-3.5,12.9c-1.1,0.9-1.3,1.5-0.7,2.8c2,4.9,0.6,10.2-3.5,13.3c-1.3,1-1.4,1.7-1,3.2&#10;&#9;&#9;c2.5,8.8-4.6,15.1-11,14.7c-3-0.2-5.9,0-8.9,0c-2.1,0-2.2,0-2,2c0.5,5.7,1,11.3,1.5,17c0.1,1.1,0.5,1.7,1.7,1.6c0.4,0,0.8,0,1.2,0&#10;&#9;&#9;c25.1,0,50.2,0,75.3,0c0.5,0,1,0,1.5,0c0.8,0,1.2-0.3,1.2-1.2c0.1-1.6,0.3-3.3,0.5-4.9c0.7-7.8,1.4-15.6,2.2-23.3&#10;&#9;&#9;c0.9-9.7,1.8-19.3,2.8-29c0.9-9.7,1.8-19.3,2.7-29c0.7-7.7,1.5-15.4,2.2-23.1c0.2-2.4,0.2-2.4-2.3-2.5c-0.3,0-0.7,0-1,0&#10;&#9;&#9;C420.1,649.6,404.3,649.6,388.5,649.6z" style="fill: rgb(166, 213, 95);" transform="matrix(1, 0, 0, 1, 0, 0)"/><path class="st4" d="M442.3,762.6c3,0,5.9,0,8.9,0c1.7,0,1.7-0.1,1.8-1.8c0-0.5,0-1,0-1.5c0-9.7,0-19.4,0-29.1&#10;&#9;&#9;c0-3.5,0.4-6.9,1.1-10.3c4.5-20.8,22.4-36.8,43.4-38.7c2.6-0.2,2.6-0.2,1.8-2.7c-8.8-30.3-17.5-60.7-26.3-91&#10;&#9;&#9;c-2.3-7.8-4.5-15.6-6.8-23.5c-0.6-2-0.6-2-2.5-1.3c-2.4,0.8-4.8,1.8-7,3.1c-16.5,9.1-26.4,22.9-29,41.7c-1.1,7.9-0.2,15.9-0.5,23.9&#10;&#9;&#9;c0,1.2,0.7,1.3,1.6,1.3c2,0,4,0,5.9,0c2.4,0,2.4,0.1,3.1,2.3c0.4,1.3,0.8,2.7,1.2,4c0.6,1.9,0.6,1.9,2.5,1.9c0.8,0,1.6,0,2.5,0&#10;&#9;&#9;c1.8,0.1,2.3,0.6,2.3,2.4c0,1.2,0,2.5,0,3.7c0,2.3-0.2,2.6-2.5,2.7c-1.2,0.1-1.6,0.5-1.7,1.6c0,0.7-0.1,1.3-0.2,2&#10;&#9;&#9;c-0.6,6-1.1,12-1.7,17.9c-0.9,9.7-1.9,19.3-2.8,29c-0.9,9.5-1.8,19-2.7,28.5c-1,10.8-2,21.6-3.1,32.4c-0.1,1.2,0.2,1.6,1.4,1.6&#10;&#9;&#9;C436.4,762.5,439.3,762.6,442.3,762.6z" style="fill: rgb(171, 45, 54);" transform="matrix(1, 0, 0, 1, 0, 0)"/><path class="st5" d="M827,762.6c29.8,0,59.6,0,89.4,0c0.7,0,1.5,0,2.2,0c0.6,0,0.9-0.3,0.8-0.9c-0.1-0.5-0.1-1-0.3-1.5&#10;&#9;&#9;c-1.5-5.4-4-10.2-7.8-14.4c-3.9-4.4-8.7-7.8-13.6-11c-5.2-3.4-10.5-6.4-15.5-10.2c-5.6-4.3-10.5-9.2-13.6-15.7&#10;&#9;&#9;c-0.8-1.7-0.9-1.7-2.4-0.6c-5.4,4.2-10.8,8.3-16.2,12.5c-2.2,1.7-2.2,1.7-4.4,0c-5.7-4.4-11.3-8.7-17-13.1c-1.5-1.2-1.6-1.2-3.1,0&#10;&#9;&#9;c-5.7,4.4-11.3,8.7-17,13.1c-2.2,1.7-2.2,1.7-4.4,0c-5.3-4.1-10.7-8.2-16-12.4c-1.7-1.3-1.7-1.3-2.6,0.5&#10;&#9;&#9;c-2.6,5.3-6.3,9.6-10.7,13.4c-4.3,3.6-9,6.6-13.8,9.6c-4.7,2.9-9.3,5.9-13.6,9.4c-5.8,4.9-10.1,10.8-12.2,18.2c-1,3.6-0.8,3,2.3,3&#10;&#9;&#9;C767.4,762.6,797.2,762.6,827,762.6z" style="fill: rgb(64, 175, 104);" transform="matrix(1, 0, 0, 1, 0, 0)"/><path class="st4" d="M969.2,656c0-13.7,0-27.3,0-41c0-10.1-2.4-19.5-7.4-28.3c-4-6.9-9.3-12.7-15.9-17.3c-1.2-0.9-1.3-0.8-1.8,0.6&#10;&#9;&#9;c-0.7,2-1.2,4.1-1.9,6.1c-4,11.7-9.6,22.7-16.6,32.9c-0.7,1-1.1,1.9-0.7,3.2c3,10.1,7.4,19.5,14.3,27.6c2.2,2.6,4.2,5.3,6,8.1&#10;&#9;&#9;c8.3,12.9,12.2,27.1,9.5,42.3c-3.8,21.7-16.2,37-36.4,45.8c-2.6,1.2-5.4,1.9-8.2,2.7c-0.7,0.2-0.9,0.4-0.3,1&#10;&#9;&#9;c0.2,0.2,0.5,0.4,0.7,0.7c6.1,5.6,10.3,12.4,12,20.5c0.3,1.3,0.9,1.7,2.2,1.7c6.9-0.1,13.8,0,20.7,0c4.4,0,8.9,0,13.3,0&#10;&#9;&#9;c2,0,2,0,2-2.1c0-0.6,0-1.2,0-1.7c0-16.1,0-32.3,0-48.4c0-1.1-0.4-2.4,0.9-3.1c1.3-0.6,2,0.4,2.7,1.1c0.7,0.6,1.1,0.6,1.4-0.4&#10;&#9;&#9;c0.4-1.5,1.1-3,2.1-4.1c1.2-1.2,1.3-2.5,1.3-4.1C969.2,685.2,969.2,670.6,969.2,656z" style="fill: rgb(171, 45, 54);" transform="matrix(1, 0, 0, 1, 0, 0)"/><path class="st4" d="M703.4,744.3c0,5.4,0,10.9,0,16.3c0,1.9,0,1.9,1.9,1.9c8.1,0,16.1,0,24.2,0c1.4,0,2-0.3,2.3-1.8&#10;&#9;&#9;c1.7-8,5.8-14.6,11.7-20.1c0.3-0.3,0.6-0.5,0.9-0.8c0.4-0.4,0.6-0.8-0.2-1c-0.3-0.1-0.6-0.2-0.9-0.3c-11.2-2.9-20.8-8.6-28.6-17.2&#10;&#9;&#9;c-13-14.4-18.2-31.2-14.9-50.4c2-11.3,7.1-21.2,14.4-29.9c7-8.3,11.8-17.7,15-28.1c0.5-1.7,0.4-2.9-0.6-4.3&#10;&#9;&#9;c-5.7-8.4-10.5-17.3-14.2-26.7c-1.2-3.1-2.2-6.2-3.3-9.3c-0.5-1.4-0.6-1.4-1.8-0.5c-0.2,0.1-0.4,0.3-0.6,0.5&#10;&#9;&#9;c-12.2,10.8-19,24.3-19.1,40.7c-0.2,26.8,0,53.7-0.1,80.5c0,1.6,0.5,2.7,1.5,3.9c8.1,9.4,12.2,20.3,12.3,32.7&#10;&#9;&#9;C703.4,735.1,703.4,739.7,703.4,744.3z" style="fill: rgb(171, 45, 54);" transform="matrix(1, 0, 0, 1, 0, 0)"/><path class="st4" d="M686.4,650c0-11.8,0-23.7,0-35.5c0-7.3-1.3-14.4-4.2-21.1c-0.4-0.8-0.4-2.3-1.4-2.3c-0.8,0-0.7,1.5-1,2.3&#10;&#9;&#9;c-8.1,28-16.2,56-24.3,84.1c-0.9,3.2-0.9,3.2,2.5,3.5c9.7,0.8,18.3,4.3,26.1,10.2c0.6,0.5,1.2,1.5,2,1.1c0.7-0.4,0.3-1.5,0.3-2.3&#10;&#9;&#9;C686.4,676.7,686.4,663.3,686.4,650z" style="fill: rgb(171, 45, 54);" transform="matrix(1, 0, 0, 1, 0, 0)"/><path class="st6" d="M1009.1,762.6c13.7,0,27.3,0,41,0c1,0,2-0.1,3,0c1.2,0.1,1.6-0.5,1.6-1.6c0-3.9-0.1-7.7,0-11.6&#10;&#9;&#9;c0-1.3-0.4-1.9-1.7-1.8c-0.4,0-0.8,0-1.2,0c-28.3,0-56.6,0-84.9,0c-0.6,0-1.2,0-1.7,0c-0.8,0-1.2,0.4-1.2,1.2c0,4.1,0,8.2,0,12.3&#10;&#9;&#9;c0,0.9,0.3,1.4,1.3,1.4c0.7,0,1.3,0,2,0C981.1,762.6,995.1,762.6,1009.1,762.6z" style="fill: rgb(255, 255, 255);" transform="matrix(1, 0, 0, 1, 0, 0)"/><path class="st5" d="M827.2,696.4c-11.6,0-23.2,0-34.8,0c-0.5,0-1,0-1.5,0c-1.3-0.1-2,0.3-2.1,1.7c-0.1,1.3-0.4,2.6-0.8,3.9&#10;&#9;&#9;c-0.6,1.5-0.3,2.5,1.1,3.5c5.2,3.9,10.3,7.9,15.5,11.9c2.1,1.6,1.7,1.3,3.5,0c5.5-4.3,11.1-8.5,16.6-12.8c2.4-1.8,2.4-1.8,4.8,0&#10;&#9;&#9;c1.1,0.8,2.2,1.7,3.3,2.6c4.6,3.5,9.1,7,13.7,10.5c0.7,0.6,1.3,1.1,2.3,0.3c5.6-4.4,11.2-8.7,16.8-13c0.8-0.6,0.9-1.2,0.7-2.1&#10;&#9;&#9;c-0.4-1.3-0.7-2.7-0.9-4.1c-0.4-2.3-0.4-2.3-2.7-2.3C850.9,696.4,839.1,696.4,827.2,696.4z" style="fill: rgb(64, 175, 104);" transform="matrix(1, 0, 0, 1, 0, 0)"/><path class="st6" d="M1009.2,728.1c14.1,0,28.2,0,42.2,0c0.6,0,1.2,0,1.7,0c1.1,0.1,1.4-0.4,1.4-1.5c0-4.3,0-8.6,0-12.8&#10;&#9;&#9;c0-0.4,0.2-0.9-0.3-1.1c-0.5-0.2-0.7,0.3-1,0.5c-2.3,2.1-4.6,4.2-7,6.3c-1.8,1.6-2.1,1.6-3.9,0c-2.8-2.5-5.7-5-8.4-7.6&#10;&#9;&#9;c-1-0.9-1.6-1-2.6,0c-2.6,2.5-5.3,4.9-8,7.3c-2.3,2.1-2.4,2.1-4.7,0.1c-2.8-2.5-5.5-4.9-8.2-7.5c-0.9-0.9-1.5-0.9-2.4,0&#10;&#9;&#9;c-2.8,2.6-5.6,5.1-8.4,7.6c-2,1.8-2.3,1.8-4.3-0.1c-2.7-2.5-5.5-4.9-8.2-7.5c-1-0.9-1.6-0.9-2.6,0c-2.7,2.6-5.6,5.1-8.4,7.6&#10;&#9;&#9;c-1.8,1.6-2.1,1.6-3.9,0c-2.3-2.1-4.6-4.2-7-6.3c-0.3-0.3-0.6-0.7-1-0.5c-0.5,0.2-0.3,0.7-0.3,1.1c0,4.1,0,8.2,0,12.3&#10;&#9;&#9;c0,1.9,0,1.9,1.9,1.9c0.5,0,1,0,1.5,0C981.2,728.1,995.2,728.1,1009.2,728.1z" style="fill: rgb(255, 255, 255);" transform="matrix(1, 0, 0, 1, 0, 0)"/><path class="st1" d="M350.9,707.4C350.9,707.4,350.9,707.4,350.9,707.4c5.3,0,10.5,0.1,15.8,0c5.4-0.1,9.1-5.5,7.5-10.6&#10;&#9;&#9;c-1.2-3.8-4.1-5.9-8.4-6c-9,0-17.9,0-26.9,0c-0.7,0-1.3,0-2,0c-1,0-1.8-0.4-1.9-1.5c0-1,0.6-1.5,1.5-1.6c0.9-0.1,1.3-0.4,1.2-1.4&#10;&#9;&#9;c-0.4-3.5-0.7-7-1-10.6c-0.2-1.5-0.3-1.6-1.9-1.4c-8.8,1-15.4,8.7-14.8,17.6c0.6,10.2,9.6,15.7,16.5,15.5&#10;&#9;&#9;C341.4,707.3,346.1,707.4,350.9,707.4z" style="fill: rgb(252, 226, 216);" transform="matrix(1, 0, 0, 1, 0, 0)"/><path class="st6" d="M709.4,567.3c-0.1-0.3-0.1-0.5-0.1-0.6c-1.6-6-2.8-12-3.5-18.1c-0.1-1-0.7-1.4-1.7-1.3&#10;&#9;&#9;c-3.1,0.2-6.1-0.3-8.9-1.4c-1.1-0.4-1.6-0.3-1.9,0.9c-3.6,12.6-7.2,25.1-10.9,37.6c-0.2,0.7-0.3,1.4,0.1,2.1&#10;&#9;&#9;c2.2,4,3.8,8.2,5.1,12.5c0.1,0.2,0.2,0.6,0.3,0.6c0.4,0,0.4-0.4,0.5-0.7c0.2-0.5,0.3-0.9,0.4-1.4c2.9-9.4,7.7-17.6,14.7-24.5&#10;&#9;&#9;c1.6-1.6,3.2-3,5-4.4C708.9,568.3,709.6,568,709.4,567.3z" style="fill: rgb(255, 255, 255);" transform="matrix(1, 0, 0, 1, 0, 0)"/><path class="st1" d="M347.3,723.5c4.5,0,9,0,13.6,0c0.1,0,0.2,0,0.2,0c1.3,0.1,2.5-0.1,3.6-0.5c4.6-1.6,7-6.9,5-11.2&#10;&#9;&#9;c-0.3-0.7-0.6-1.4-1.7-1.4c-10,0.1-20.1,0.1-30.1,0.2c-3.3,0-6.4-0.3-9.4-1.7c-1.1-0.5-1.7-0.1-2.3,0.6c-2.2,2.6-2.9,5.5-1.6,8.7&#10;&#9;&#9;c1.5,3.7,4.5,5.3,8.4,5.4C337.8,723.6,342.6,723.5,347.3,723.5z" style="fill: rgb(252, 226, 216);" transform="matrix(1, 0, 0, 1, 0, 0)"/><path class="st1" d="M347.4,726.6C347.4,726.6,347.4,726.6,347.4,726.6c-2.6,0-5.3,0-7.9,0c-2.6,0-5.3,0.1-7.9-0.1&#10;&#9;&#9;c-1.3-0.1-1.7,0.4-2.1,1.5c-1.7,5,1.9,10.7,7.2,10.9c7.1,0.2,14.1,0.2,21.2,0c5.2-0.1,8.9-5.6,7.4-10.6c-0.4-1.2-0.9-1.8-2.4-1.8&#10;&#9;&#9;C357.8,726.6,352.6,726.6,347.4,726.6z" style="fill: rgb(252, 226, 216);" transform="matrix(1, 0, 0, 1, 0, 0)"/><path class="st6" d="M1009.2,739.4c14,0,28,0,41.9,0c0.6,0,1.2,0,1.7,0c1.1,0.1,1.7-0.2,1.7-1.5c0-1.2-0.5-1.6-1.6-1.5&#10;&#9;&#9;c-0.5,0-1,0-1.5,0c-28.2,0-56.4,0-84.6,0c-0.5,0-1,0-1.5,0c-0.9,0-1.6,0.1-1.6,1.3c0,1.1,0.2,1.8,1.5,1.7c0.6,0,1.2,0,1.7,0&#10;&#9;&#9;C981.1,739.4,995.1,739.4,1009.2,739.4z" style="fill: rgb(255, 255, 255);" transform="matrix(1, 0, 0, 1, 0, 0)"/><path class="st2" d="M1038.4,697.2c0-5.6-3.3-9.7-8.4-10.9c-4.7-1.1-9.7,1.4-11.9,5.9c-0.8,1.7-0.8,1.7,0.7,3&#10;&#9;&#9;c1.3,1.1,2.5,2.2,3.2,3.7c0.7,1.3,1.3,1.7,2.8,1.2c3.3-1.1,6.6-0.7,9.8,0.7c0.8,0.3,1.5,1.4,2.4,0.9c0.8-0.5,0.9-1.7,1.1-2.7&#10;&#9;&#9;C1038.4,698.3,1038.4,697.5,1038.4,697.2z" style="fill: rgb(251, 241, 142);" transform="matrix(1, 0, 0, 1, 0, 0)"/><path class="st2" d="M1010.4,695.4c-3.9,0.1-7,1.8-9.1,5.1c-0.8,1.3-0.8,1.4,0.6,2c2.2,0.9,4,2.2,5.6,4c0.3,0.3,0.7,0.8,0.9,0.7&#10;&#9;&#9;c1.9-0.3,2.8,1.2,3.9,2.2c1.4,1.2,2.7,2.4,4,3.6c1.2,1.1,1.3,1.1,2.3-0.2c2.6-3.4,3.2-7.2,1.4-11.1&#10;&#9;&#9;C1018.1,697.6,1014.8,695.5,1010.4,695.4z" style="fill: rgb(251, 241, 142);" transform="matrix(1, 0, 0, 1, 0, 0)"/><path class="st2" d="M997.9,682c-4.1,0-8.2,2.7-9.6,6.2c-0.3,0.8-0.3,1.2,0.6,1.4c4.2,1.1,7.3,3.6,9.2,7.5c0.5,1,0.8,1.1,1.5,0.2&#10;&#9;&#9;c2-2.5,4.6-4.1,7.8-4.8c1.1-0.2,1.2-0.8,1.1-1.7C1007.7,685.8,1003.1,681.9,997.9,682z" style="fill: rgb(251, 241, 142);" transform="matrix(1, 0, 0, 1, 0, 0)"/><path class="st2" d="M979.8,701.3c-6-0.1-10.5,3.8-11.4,9.1c-0.2,0.9,0,1.5,0.7,2.2c1.3,1.1,2.6,2.2,3.8,3.5c0.8,0.8,1.5,0.8,2.2,0&#10;&#9;&#9;c0.3-0.3,0.6-0.6,0.9-0.8c2.7-2.4,5.3-4.9,8-7.3c1.4-1.2,1.8-1.2,3.2-0.1c0.2,0.2,0.4,0.3,0.6,0.5c0.3,0.2,0.7,0.8,1,0.6&#10;&#9;&#9;c0.5-0.4,0.1-0.9-0.2-1.3C986.7,703.6,983.5,701.6,979.8,701.3z" style="fill: rgb(251, 241, 142);" transform="matrix(1, 0, 0, 1, 0, 0)"/><path class="st2" d="M996,700.6c0-0.2-0.1-0.4-0.1-0.5c-0.8-3.6-4.5-7.1-8.4-7.7c-4.4-0.7-8.9,1.3-10.8,4.8&#10;&#9;&#9;c-0.4,0.8-0.4,1.2,0.7,1.1c2.4-0.3,4.7,0,7,0.9c1.9,0.8,3.4,1.9,4.8,3.3c0.4,0.4,0.8,0.9,1.5,0.5c1.4-0.8,3-1.2,4.7-1.5&#10;&#9;&#9;C995.7,701.5,996.2,701.3,996,700.6z" style="fill: rgb(251, 241, 142);" transform="matrix(1, 0, 0, 1, 0, 0)"/><path class="st2" d="M997.1,704.6c-1.6,0-3.1,0.3-4.5,0.9c-0.7,0.3-1,0.7-0.7,1.6c0.6,1.5,0.9,3.2,0.9,4.8c0,0.6,0.2,1.1,0.7,1.5&#10;&#9;&#9;c1,0.9,2.1,1.8,3.1,2.8c0.7,0.6,1.2,0.6,1.9-0.1c2.1-1.9,4.2-3.9,6.4-5.8c0.9-0.8,0.8-1.4,0-2.2&#10;&#9;&#9;C1002.8,705.9,1000.2,704.7,997.1,704.6z" style="fill: rgb(251, 241, 142);" transform="matrix(1, 0, 0, 1, 0, 0)"/><path class="st2" d="M1042.7,713.4c0,0.4-0.1,0.9-0.1,1.3c-0.1,1,0.6,1.5,1.3,1.9c0.8,0.5,1.2-0.2,1.6-0.7c1.4-1.2,2.8-2.6,4.2-3.8&#10;&#9;&#9;c0.9-0.7,1.1-1.5,1-2.6c-0.5-4.1-4.2-8-8.3-8.8c-0.4-0.1-0.9-0.4-1.2,0c-0.6,1-1.1,2-1.6,3c-0.4,0.7,0.1,1.1,0.4,1.5&#10;&#9;&#9;C1041.8,707.7,1042.5,710.5,1042.7,713.4z" style="fill: rgb(251, 241, 142);" transform="matrix(1, 0, 0, 1, 0, 0)"/><path class="st2" d="M1028.3,702.5c-0.6,0.1-1.7,0.3-2.7,0.5c-1.2,0.3-1.7,1-1.6,2.3c0.3,3.6-0.9,6.8-3.2,9.6&#10;&#9;&#9;c-0.2,0.2-0.3,0.4-0.5,0.6c-0.3,0.4-0.4,0.7,0,1c0.3,0.2,0.6,0.3,0.9,0c0.5-0.4,0.9-0.7,1.3-1.1c2.6-2.3,5.1-4.6,7.7-6.9&#10;&#9;&#9;c2.2-2,2.4-2,4.6,0.1c1.1,1,2.2,2,3.3,3c0.2,0.2,0.5,0.6,0.8,0.5c0.5-0.2,0.2-0.7,0.2-1.1C1038.4,706.3,1033.6,702.4,1028.3,702.5z&#10;&#9;&#9;" style="fill: rgb(251, 241, 142);" transform="matrix(1, 0, 0, 1, 0, 0)"/><path class="st2" d="M1013.5,692.6c0.9,0.3,1.2-0.1,1.5-0.8c1.3-3.3,3.5-5.7,6.6-7.3c0.6-0.3,0.8-0.7,0-1.1&#10;&#9;&#9;c-3.2-2-8.4-1.7-11.4,0.7c-0.7,0.6-0.8,1-0.3,1.8c0.9,1.6,1.6,3.3,1.7,5.1C1011.7,692.3,1012.4,692.5,1013.5,692.6z" style="fill: rgb(251, 241, 142);" transform="matrix(1, 0, 0, 1, 0, 0)"/><path class="st7" d="M394.7,605.9c0.3,0,0.4-0.3,0.4-0.5c0.5-2,1-4,1.5-5.9c0.1-0.4,0.1-0.8-0.2-1.2c-1.1-1.2-2.2-2.4-3.4-3.5&#10;&#9;&#9;c-0.3-0.3-0.7-0.4-0.9,0.2c-0.6,2.2-1.5,4.4-1.5,6.6c0,1.5,2.1,2.3,3.1,3.6c0.1,0.2,0.3,0.4,0.5,0.5&#10;&#9;&#9;C394.4,605.9,394.6,605.9,394.7,605.9z" style="fill: rgb(232, 56, 74);" transform="matrix(1, 0, 0, 1, 0, 0)"/><path class="st7" d="M400.5,584c0.3-0.8,0-1.3-0.4-1.7c-1-1-1.9-2-2.9-3c-0.8-0.8-1.1-0.3-1.3,0.4c-0.5,1.8-0.9,3.7-1.3,5.5&#10;&#9;&#9;c-0.1,0.5-0.1,1,0.3,1.4c1.1,1.1,2.1,2.2,3.2,3.3c0.5,0.5,0.9,0.3,1-0.3C399.6,587.6,400.1,585.7,400.5,584z" style="fill: rgb(232, 56, 74);" transform="matrix(1, 0, 0, 1, 0, 0)"/><path class="st7" d="M386.7,616.8c0,0.4-0.1,0.8,0.2,1.2c1.1,1.2,2.2,2.4,3.4,3.5c0.3,0.3,0.8,0.3,0.9-0.3c0.5-2.1,1-4.1,1.5-6.2&#10;&#9;&#9;c0.1-0.5-0.1-0.9-0.5-1.3c-1-1-2-2.1-3.1-3.2c-0.5-0.5-0.8-0.4-1,0.3C387.7,612.9,387.2,614.8,386.7,616.8z" style="fill: rgb(232, 56, 74);" transform="matrix(1, 0, 0, 1, 0, 0)"/><path class="st7" d="M404.5,567.7c0.1-0.6-0.3-0.9-0.6-1.3c-0.9-1-1.9-1.9-2.7-2.8c-0.7-0.7-1.1-0.6-1.3,0.3&#10;&#9;&#9;c-0.5,1.8-0.9,3.7-1.4,5.5c-0.1,0.5-0.2,1,0.2,1.4c1.1,1.1,2.2,2.3,3.2,3.4c0.4,0.4,0.9,0.5,1.1-0.2&#10;&#9;&#9;C403.5,571.8,404,569.7,404.5,567.7z" style="fill: rgb(232, 56, 74);" transform="matrix(1, 0, 0, 1, 0, 0)"/><path class="st7" d="M402.3,554c0,0.1-0.1,0.5,0.1,0.7c1.2,1.3,2.4,2.6,3.7,3.9c0.3,0.3,0.7,0.1,0.7-0.3c0.6-2.2,1.6-4.4,1.5-6.6&#10;&#9;&#9;c-0.1-1.7-2.2-2.6-3.4-4c-0.6-0.7-1-0.3-1.2,0.4C403.3,549.9,402.8,551.9,402.3,554z" style="fill: rgb(232, 56, 74);" transform="matrix(1, 0, 0, 1, 0, 0)"/><path class="st7" d="M385.6,632.5c0.2,0,0.5,0,0.7,0c0.8-0.1,1.8,0.3,2.3-0.9c0.4-1.1,0-1.9-0.7-2.6c-0.8-0.8-1.6-1.6-2.4-2.4&#10;&#9;&#9;c-0.6-0.6-1-0.8-1.3,0.3c-0.2,1-0.5,1.9-0.7,2.8C382.8,632.5,382.8,632.5,385.6,632.5z" style="fill: rgb(232, 56, 74);" transform="matrix(1, 0, 0, 1, 0, 0)"/><path class="st7" d="M406.8,538.1c-0.8,0.1-0.8,0.6-0.4,1.1c0.7,0.8,1.4,1.6,2.2,2.3c0.6,0.5,1,1.7,1.8,1.5&#10;&#9;&#9;c0.9-0.3,0.6-1.6,0.9-2.4c0.2-0.6,0.3-1.2-0.5-1.4C409.5,538.7,408.1,538.4,406.8,538.1z" style="fill: rgb(232, 56, 74);" transform="matrix(1, 0, 0, 1, 0, 0)"/><path class="st0" d="M446.4,343.9c-0.1,0.9-0.6,1.4-1.6,1.5c-1.5,0.1-2.9,0.2-4.4,0.3c-2.6,0.1-5.2,0.7-7.7,1.5&#10;&#9;&#9;c-8.4,2.7-13.7,8.5-16.2,16.8c-0.9,2.9-1.3,5.9-1.3,9c0,0.7,0,1.5-0.1,2.2c-0.1,0.9-0.6,1.3-1.5,1.3c-0.9,0-1.4-0.5-1.5-1.3&#10;&#9;&#9;c-0.1-1-0.1-2-0.1-3c0-4.9-1.2-9.5-3.5-13.7c-3.8-7-9.9-10.8-17.5-12.3c-2.8-0.6-5.7-0.7-8.6-0.9c-1-0.1-1.5-0.6-1.5-1.6&#10;&#9;&#9;c0-0.9,0.6-1.3,1.4-1.4c0.5-0.1,1,0,1.5,0c2.6,0,5.1-0.3,7.6-0.9c11.2-2.4,18.3-9.9,20.2-21.2c0.4-2,0.5-4.1,0.5-6.1&#10;&#9;&#9;c0-0.7,0-1.3,0.2-1.9c0.2-0.7,0.8-1,1.5-1c0.6,0,1.1,0.4,1.3,1c0.3,1,0.2,2.1,0.2,3.2c0,4.7,1.1,9.1,3.2,13.3&#10;&#9;&#9;c4,7.8,10.7,11.7,19.2,13.1c2.2,0.4,4.4,0.6,6.6,0.5C445.4,342.3,446.2,342.6,446.4,343.9z M431.9,343.9c0-0.2-0.1-0.3-1.5-0.8&#10;&#9;&#9;c-7.1-2.7-12.3-7.5-15.4-14.4c-0.3-0.7-0.6-1.5-0.9-2.3c-0.1-0.2-0.1-0.5-0.4-0.5c-0.2,0-0.4,0.3-0.5,0.5c-0.2,0.4-0.3,0.8-0.5,1.1&#10;&#9;&#9;c-3,7.4-8.2,12.6-15.7,15.4c-0.5,0.2-0.9,0.3-1.4,0.5c-0.3,0.2-0.5,0.4,0,0.7c0.4,0.2,0.8,0.3,1.1,0.5c7.7,2.8,13,8.1,16,15.7&#10;&#9;&#9;c0.1,0.3,0.2,0.6,0.3,0.9c0.1,0.2,0.3,0.3,0.5,0.5c0.1-0.2,0.3-0.3,0.4-0.5c0.3-0.6,0.5-1.2,0.8-1.8c2-4.7,4.9-8.5,9.1-11.4&#10;&#9;&#9;c2.2-1.6,4.7-2.7,7.2-3.7C431.4,344.3,431.8,344.3,431.9,343.9z" style="fill: rgb(22, 29, 56);" transform="matrix(1, 0, 0, 1, 0, 0)"/><path class="st0" d="M529.8,282.4c-1.1-0.2-1.6-0.8-1.7-1.9c0-1.6,0-3.1-0.4-4.7c-1.5-6.9-6.1-11-13.2-11.7&#10;&#9;&#9;c-1.1-0.1-2.1-0.1-3.2-0.2c-0.9-0.1-1.6-0.5-1.6-1.5c0-1,0.7-1.4,1.6-1.5c1.6-0.1,3.1-0.1,4.7-0.5c7.4-1.5,11.9-6.9,12.1-14.4&#10;&#9;&#9;c0-0.7,0-1.5,0.1-2.2c0.1-0.8,0.7-1.3,1.6-1.3c0.9,0,1.3,0.6,1.4,1.4c0.1,1.3,0.1,2.6,0.3,3.9c1.2,7.7,6.2,12.3,13.9,12.9&#10;&#9;&#9;c0.9,0.1,1.8,0.1,2.7,0.2c0.8,0.1,1.4,0.5,1.4,1.4c0,1-0.5,1.5-1.4,1.6c-0.8,0.1-1.6,0.1-2.5,0.2c-8.9,0.8-14.2,6.4-14.4,15.3&#10;&#9;&#9;c0,0.6,0,1.1-0.1,1.7C531,282,530.4,282.2,529.8,282.4z M538.5,262.5c-0.3-0.2-0.5-0.5-0.8-0.6c-3.3-1.6-5.7-4-7.4-7.3&#10;&#9;&#9;c-0.5-1-0.9-0.6-1.3,0.1c-0.9,1.7-2,3.2-3.4,4.5c-1.2,1.1-2.6,2-4,2.8c-0.7,0.3-0.8,0.7,0,1.1c3.3,1.6,5.8,4,7.5,7.2&#10;&#9;&#9;c0.3,0.6,0.6,1.4,1.2,0.2c1.7-3.3,4.2-5.8,7.6-7.5C538,262.8,538.2,262.7,538.5,262.5z" style="fill: rgb(22, 29, 56);" transform="matrix(1, 0, 0, 1, 0, 0)"/><path class="st0" d="M660.9,310c-0.7,0-1.3-0.4-1.4-1.3c-0.1-0.9-0.1-1.8-0.2-2.7c-1-5.9-4.5-9.1-10.4-9.6c-0.6,0-1.2,0-1.7-0.1&#10;&#9;&#9;c-0.8-0.1-1.3-0.7-1.4-1.5c0-0.9,0.5-1.4,1.3-1.5c0.7-0.1,1.5-0.1,2.2-0.2c6.3-0.8,9.7-4.4,10.1-10.7c0-0.5,0-1,0-1.5&#10;&#9;&#9;c0.1-0.8,0.5-1.2,1.3-1.3c0.9-0.1,1.4,0.3,1.6,1.2c0.1,0.5,0.1,1,0.1,1.5c0.3,6.3,3.6,10,9.9,10.9c0.8,0.1,1.6,0.2,2.5,0.3&#10;&#9;&#9;c0.8,0.1,1.2,0.6,1.3,1.3c0.1,0.8-0.4,1.4-1.2,1.6c-0.5,0.1-1,0.1-1.5,0.1c-6.9,0.4-10.7,4.3-11,11.1&#10;&#9;&#9;C662.4,309.3,662,309.9,660.9,310z M666.3,294.8c-0.1-0.2-0.2-0.3-0.3-0.4c-2-1.2-3.5-2.7-4.7-4.6c-0.3-0.5-0.7-0.2-0.9,0.2&#10;&#9;&#9;c-1.1,1.8-2.5,3.2-4.3,4.3c-0.6,0.4-0.5,0.8,0,1.1c1.8,1.1,3.2,2.5,4.3,4.3c0.4,0.7,0.8,0.4,1.1-0.1c1.1-1.8,2.5-3.2,4.4-4.3&#10;&#9;&#9;C666,295.2,666.1,295,666.3,294.8z" style="fill: rgb(22, 29, 56);" transform="matrix(1, 0, 0, 1, 0, 0)"/><path class="st0" d="M967.3,382.4c-0.1,1-0.8,1.4-1.7,1.4c-1.2,0-2.3,0.2-3.4,0.4c-4.7,1-7.6,4.1-8.3,8.9c-0.1,0.9-0.2,1.8-0.2,2.7&#10;&#9;&#9;c-0.1,0.9-0.5,1.7-1.4,1.7c-1.1,0-1.6-0.7-1.7-1.8c0-0.3,0-0.7,0-1c-0.3-6.1-3.4-9.7-9.5-10.7c-0.9-0.1-1.8-0.1-2.7-0.2&#10;&#9;&#9;c-0.9-0.1-1.3-0.6-1.4-1.5c0-0.9,0.5-1.4,1.3-1.5c1.1-0.1,2.1-0.2,3.2-0.4c5.6-0.9,8.8-4.6,9-10.3c0-0.6,0-1.2,0.1-1.7&#10;&#9;&#9;c0.2-0.8,0.7-1.3,1.5-1.3c0.9,0,1.3,0.6,1.4,1.4c0.1,0.8,0.1,1.6,0.2,2.5c0.7,5.5,3.6,8.6,9,9.5c1,0.2,2,0.2,2.9,0.3&#10;&#9;&#9;C966.7,380.9,967.2,381.4,967.3,382.4z M952,387.7c0.2-0.2,0.4-0.2,0.4-0.4c1.2-1.9,2.7-3.5,4.7-4.6c0.7-0.4,0.2-0.8-0.2-1.1&#10;&#9;&#9;c-1.7-1-3.1-2.4-4.1-4.1c-0.4-0.6-0.7-0.8-1.2-0.1c-1,1.7-2.4,3.1-4.1,4.1c-0.9,0.6-0.7,0.9,0.1,1.4c1.7,1.1,3.1,2.4,4.1,4.2&#10;&#9;&#9;C951.7,387.4,951.9,387.5,952,387.7z" style="fill: rgb(22, 29, 56);" transform="matrix(1, 0, 0, 1, 0, 0)"/><path class="st0" d="M379.3,432.5c-0.1,0.7-0.5,1.2-1.2,1.3c-0.6,0.1-1.3,0.2-2,0.2c-4.5,0.5-7.1,3.2-7.5,7.7&#10;&#9;&#9;c-0.1,0.6,0,1.2-0.1,1.7c-0.1,0.8-0.7,1.1-1.4,1.1c-0.7,0-1.3-0.3-1.5-1.1c-0.1-0.5-0.1-1-0.1-1.5c-0.4-4.9-2.9-7.5-7.7-8&#10;&#9;&#9;c-0.6-0.1-1.2-0.1-1.7-0.2c-0.7-0.1-1.2-0.6-1.3-1.3c-0.1-0.9,0.4-1.4,1.2-1.6c0.5-0.2,1.1-0.1,1.7-0.2c4.7-0.4,7.3-3,7.8-7.7&#10;&#9;&#9;c0.1-0.6,0-1.2,0.1-1.7c0.1-0.8,0.7-1.1,1.4-1.1c0.7,0,1.3,0.4,1.5,1.1c0.1,0.5,0.1,1,0.1,1.5c0.4,4.9,3.1,7.6,8,8&#10;&#9;&#9;c0.6,0.1,1.3-0.1,1.9,0.3C379,431.5,379.3,431.9,379.3,432.5z M370.4,432.2c-0.1-0.1-0.3-0.3-0.5-0.4c-1.1-0.7-1.7-2.4-2.8-2.6&#10;&#9;&#9;c-1.1-0.1-1.6,1.8-2.8,2.4c-0.1,0-0.1,0.1-0.2,0.1c-0.7,0.4-0.7,0.8,0,1.2c1.2,0.7,1.8,2.7,3,2.6c1.1-0.1,1.8-1.9,3-2.7&#10;&#9;&#9;C370.3,432.8,370.5,432.6,370.4,432.2z" style="fill: rgb(22, 29, 56);" transform="matrix(1, 0, 0, 1, 0, 0)"/><path class="st0" d="M1037.8,505.4c0,0.9-0.4,1.4-1.2,1.6c-0.6,0.1-1.3,0.1-2,0.2c-4.4,0.5-7,3.1-7.4,7.5c-0.1,0.6-0.1,1.1-0.2,1.7&#10;&#9;&#9;c-0.1,0.7-0.5,1.2-1.3,1.3c-0.9,0.1-1.4-0.4-1.6-1.2c-0.1-0.6-0.1-1.1-0.1-1.7c-0.3-4.3-2.9-7.1-7.3-7.6c-0.7-0.1-1.5-0.1-2.2-0.3&#10;&#9;&#9;c-0.8-0.1-1-0.7-1.1-1.5c0-0.8,0.4-1.3,1.1-1.4c0.6-0.1,1.1-0.1,1.7-0.2c4.8-0.5,7.4-3.1,7.7-8c0-0.5,0-1,0.1-1.5&#10;&#9;&#9;c0.2-0.7,0.7-1.1,1.4-1.1c0.7,0,1.3,0.3,1.5,1.1c0.1,0.5,0.1,1,0.2,1.5c0.5,5.1,2.9,7.5,7.9,8c0.6,0.1,1.3,0,1.9,0.3&#10;&#9;&#9;C1037.5,504.5,1037.8,504.8,1037.8,505.4z M1029.1,505.6c-0.2-0.6-0.6-0.8-1-1.1c-1-0.7-1.5-2.3-2.4-2.3c-1.1,0-1.6,1.8-2.7,2.4&#10;&#9;&#9;c-1.2,0.7-0.9,1.2,0.1,1.9c0.9,0.7,1.6,1.6,2.4,2.4c0.9-0.8,1.7-1.7,2.6-2.5C1028.5,506.1,1028.8,505.9,1029.1,505.6z" style="fill: rgb(22, 29, 56);" transform="matrix(1, 0, 0, 1, 0, 0)"/><path class="st0" d="M786.8,324.3c-0.1,0.8-0.4,1.4-1.3,1.6c-0.6,0.1-1.3,0.1-2,0.2c-4.3,0.5-7,3.1-7.5,7.5c-0.1,0.6,0,1.2-0.1,1.7&#10;&#9;&#9;c-0.1,0.9-0.6,1.3-1.5,1.3c-0.8,0-1.4-0.5-1.5-1.3c0-0.5,0-1-0.1-1.5c-0.4-4.6-3.2-7.3-7.8-7.7c-0.6-0.1-1.2,0-1.7-0.2&#10;&#9;&#9;c-0.8-0.2-1.3-0.8-1.2-1.6c0.1-0.7,0.5-1.2,1.3-1.3c0.6-0.1,1.3-0.1,2-0.2c4.7-0.7,7.1-3.2,7.5-8c0-0.5,0-1,0.1-1.5&#10;&#9;&#9;c0.2-0.7,0.7-1.1,1.4-1.1c0.7,0,1.3,0.4,1.4,1.1c0.1,0.6,0.1,1.1,0.1,1.7c0.4,4.4,2.9,7,7.3,7.7c0.7,0.1,1.5,0.1,2.2,0.3&#10;&#9;&#9;C786.3,323.1,786.7,323.6,786.8,324.3z M774.5,327.7c0.1-0.1,0.3-0.1,0.4-0.2c0.8-1,1.7-1.9,2.8-2.7c0.4-0.3,0.3-0.7-0.1-0.9&#10;&#9;&#9;c-0.9-0.7-1.7-1.5-2.4-2.4c-0.4-0.5-0.7-0.6-1.1,0c-0.8,1.1-2.4,1.7-2.6,2.8c-0.3,1.2,1.7,1.6,2.3,2.7c0.1,0.2,0.3,0.4,0.4,0.6&#10;&#9;&#9;C774.2,327.6,774.4,327.7,774.5,327.7z" style="fill: rgb(22, 29, 56);" transform="matrix(1, 0, 0, 1, 0, 0)"/><path class="st0" d="M338.1,462.2c1.1,0,1.6,0.7,1.6,1.6c0.1,2.5,1.4,3.5,3.7,3.7c0.9,0.1,1.5,0.6,1.5,1.6c0,0.9-0.6,1.3-1.4,1.4&#10;&#9;&#9;c-0.3,0.1-0.6,0.1-1,0.1c-1.6,0.2-2.5,1.1-2.7,2.7c-0.1,0.6-0.1,1.2-0.4,1.7c-0.6,1.1-2,1.1-2.6,0c-0.2-0.4-0.3-0.9-0.4-1.4&#10;&#9;&#9;c-0.4-2.1-0.9-2.5-3-3c-0.7-0.1-1.5-0.1-1.9-0.9c-0.6-1,0-2.2,1.6-2.3c2.1-0.2,3.3-1.2,3.4-3.4C336.6,463,337.1,462.2,338.1,462.2z&#10;&#9;&#9; M338.2,469.2c0.2,0,0.3-0.2,0.2-0.4c0-0.1-0.1-0.1-0.2-0.2c-0.1,0-0.1,0.1-0.2,0.1C337.9,469,338,469.1,338.2,469.2z" style="fill: rgb(22, 29, 56);" transform="matrix(1, 0, 0, 1, 0, 0)"/><path class="st0" d="M848.1,357.6c0,0.9-0.4,1.4-1.1,1.6c-0.5,0.1-1,0.2-1.4,0.3c-1.5,0.2-2.3,1.1-2.6,2.6c-0.1,0.5-0.2,1-0.3,1.4&#10;&#9;&#9;c-0.2,0.7-0.7,1.1-1.4,1.1c-0.8,0-1.2-0.4-1.4-1.1c-0.1-0.3-0.1-0.6-0.1-1c-0.4-2.1-0.9-2.6-2.9-3.1c-0.4-0.1-0.8-0.1-1.2-0.2&#10;&#9;&#9;c-0.8-0.2-1-0.8-1-1.5c0-0.6,0.3-1.1,0.9-1.3c0.4-0.1,0.8-0.2,1.2-0.2c2-0.4,2.6-1,3-3c0.1-0.4,0.1-0.8,0.2-1.2&#10;&#9;&#9;c0.3-0.7,0.8-1,1.6-0.9c0.6,0.1,1.1,0.4,1.3,1c0,0.2,0.1,0.3,0.1,0.5c0.1,2.3,1.3,3.6,3.7,3.7C847.5,356.3,848.1,356.8,848.1,357.6&#10;&#9;&#9;z M841.7,357.9c0-0.2-0.1-0.3-0.3-0.2c-0.1,0-0.1,0.1-0.1,0.2c0,0.1,0.1,0.2,0.1,0.2C841.5,358.1,841.6,358,841.7,357.9z" style="fill: rgb(22, 29, 56);" transform="matrix(1, 0, 0, 1, 0, 0)"/><path class="st0" d="M942.1,307c-1-0.1-1.5-0.8-1.5-1.7c-0.1-2.3-1.3-3.4-3.5-3.5c-0.9,0-1.6-0.5-1.7-1.5c-0.1-1,0.6-1.5,1.5-1.6&#10;&#9;&#9;c2.3-0.2,3.7-1.2,3.7-3.7c0-0.9,0.5-1.6,1.5-1.6c1,0,1.5,0.6,1.5,1.6c0.1,2.4,1.4,3.6,3.7,3.7c0.9,0.1,1.6,0.5,1.5,1.6&#10;&#9;&#9;c0,1-0.7,1.5-1.6,1.5c-2.4,0.1-3.5,1.4-3.6,3.8C943.6,306.5,943.1,306.9,942.1,307z M942.4,300.1c0-0.1-0.1-0.1-0.1-0.1&#10;&#9;&#9;c-0.1,0-0.1,0.1-0.2,0.1c0.1,0.1,0.2,0.1,0.2,0.2C942.3,300.2,942.4,300.1,942.4,300.1z" style="fill: rgb(22, 29, 56);" transform="matrix(1, 0, 0, 1, 0, 0)"/><path class="st0" d="M688.5,324.7c0.9,0.1,1.6,0.6,1.6,1.5c0,2.4,1.3,3.6,3.6,3.7c0.9,0.1,1.6,0.5,1.7,1.5c0,1.1-0.7,1.5-1.8,1.6&#10;&#9;&#9;c-2.2,0.2-3.5,1.3-3.5,3.6c0,0.9-0.5,1.6-1.5,1.6c-1,0.1-1.5-0.5-1.6-1.5c-0.2-2.3-1.3-3.6-3.7-3.8c-0.9,0-1.6-0.4-1.6-1.5&#10;&#9;&#9;c0-1.2,0.7-1.5,1.8-1.6c2.3-0.1,3.4-1.4,3.5-3.6C687.1,325.4,687.5,324.8,688.5,324.7z M688.5,331.7c0-0.1,0.1-0.2,0.1-0.2&#10;&#9;&#9;c-0.1-0.2-0.2-0.1-0.3,0.1C688.3,331.7,688.4,331.7,688.5,331.7z" style="fill: rgb(22, 29, 56);" transform="matrix(1, 0, 0, 1, 0, 0)"/><path class="st0" d="M1025.6,408.6c0.8,0.1,1.4,0.5,1.5,1.4c0.1,2.6,1.4,3.9,4,4c0.8,0,1.3,0.6,1.3,1.5c0,0.9-0.5,1.4-1.4,1.5&#10;&#9;&#9;c-2.6,0.1-3.9,1.4-4,4c0,0.9-0.7,1.3-1.5,1.3c-0.8,0-1.5-0.5-1.5-1.4c0-2.7-1.5-3.8-4-3.9c-0.9-0.1-1.3-0.7-1.3-1.5&#10;&#9;&#9;c0-0.8,0.5-1.3,1.4-1.5c0.2,0,0.3,0,0.5,0c2.5-0.5,3-0.9,3.4-3.4C1024.1,409.4,1024.5,408.7,1025.6,408.6z M1025.8,415.3&#10;&#9;&#9;c0-0.1-0.1-0.1-0.1-0.2c0,0-0.1,0.1-0.1,0.1c0,0.2,0.1,0.3,0.2,0.2C1025.8,415.4,1025.8,415.3,1025.8,415.3z" style="fill: rgb(22, 29, 56);" transform="matrix(1, 0, 0, 1, 0, 0)"/><path class="st7" d="M477.4,464.1c9.3-0.3,17.6,7.4,17.7,17.4c0,9.7-7.7,17.6-17.5,17.7c-9.6,0.1-17.6-7.8-17.7-17.5&#10;&#9;&#9;C459.9,471.9,467.7,464.1,477.4,464.1z" style="fill: rgb(232, 56, 74);" transform="matrix(1, 0, 0, 1, 0, 0)"/><path class="st7" d="M659.5,481.5c0-9.8,7.7-17.4,17.6-17.4c9.8,0,17.5,7.8,17.5,17.6c0,9.7-8,17.6-17.6,17.5&#10;&#9;&#9;C665.9,499,659.1,489.8,659.5,481.5z" style="fill: rgb(232, 56, 74);" transform="matrix(1, 0, 0, 1, 0, 0)"/><path class="st0" d="M578,461.3c15.8,0,31.6,0.1,47.4,0c4,0,3.8,1.4,2.3,4c-6.6,12.2-15.8,21.7-28.7,27.4&#10;&#9;&#9;c-20.2,8.9-43.6,4.5-59.3-11.1c-4.9-4.9-8.8-10.4-12-16.5c-0.3-0.5-0.5-1-0.7-1.6c-0.4-1.5,0-2.2,1.6-2.3c0.7,0,1.3,0,2,0&#10;&#9;&#9;C546.4,461.3,562.2,461.3,578,461.3z" style="fill: rgb(22, 29, 56);" transform="matrix(1, 0, 0, 1, 0, 0)"/><path class="st6" d="M578,464.3c-11,0-22,0-33.1,0c-4.2,0-8.4,0-12.6,0c-1.1,0-1.3,0.3-0.8,1.3c1.5,2.7,3.2,5.4,5.1,7.8&#10;&#9;&#9;c7.5,9.8,17.2,16.4,29.2,19.4c2.4,0.6,2.4,0.6,3.7-1.5c4.9-7.2,11.6-11,20.4-10.7c1,0,1.8-0.2,2.7-0.9c6.4-5.3,13.5-6.5,21.1-3.1&#10;&#9;&#9;c1.2,0.5,1.9,0.3,2.7-0.7c2.6-3,4.9-6.2,6.9-9.6c1.2-2.1,1.2-2.1-1.3-2.1C607.5,464.3,592.7,464.3,578,464.3z" style="fill: rgb(255, 255, 255);" transform="matrix(1, 0, 0, 1, 0, 0)"/><path class="st7" d="M575.8,494.1c6.8,0.2,13.4-0.9,19.8-3.3c6.3-2.4,11.8-6.1,16.9-10.4c1-0.9,0-0.9-0.4-1&#10;&#9;&#9;c-4.8-2-9.6-1.9-14.2,0.6c-2.9,1.6-5.2,3.9-7.1,6.7c-0.3,0.4-0.5,0.8-0.8,1.2c-0.6,0.9-1.4,1.2-2.3,0.6c-0.8-0.5-0.8-1.3-0.4-2.2&#10;&#9;&#9;c0.2-0.4,0.5-0.9,0.8-1.3c0.2-0.3,0.6-0.7,0.4-1.1c-0.2-0.4-0.7-0.2-1.1-0.2c-5.4,0.6-9.9,2.9-13.3,7.1c-0.7,0.8-2.1,1.7-1.6,2.8&#10;&#9;&#9;c0.4,0.8,1.9,0.3,3,0.4C575.5,494.1,575.7,494.1,575.8,494.1z" style="fill: rgb(232, 56, 74);" transform="matrix(1, 0, 0, 1, 0, 0)"/><path class="st0" d="M647.6,460.9c-4.8,0-8.5-3.9-8.4-8.7c0.1-4.6,3.9-8.4,8.6-8.4c4.8,0,8.6,3.9,8.5,8.7&#10;&#9;&#9;C656.3,457.2,652.4,460.9,647.6,460.9z" style="fill: rgb(22, 29, 56);" transform="matrix(1, 0, 0, 1, 0, 0)"/><path class="st0" d="M515.3,452.3c0,4.8-3.8,8.6-8.6,8.5c-4.8,0-8.6-3.9-8.5-8.6c0.1-4.7,3.8-8.4,8.5-8.5&#10;&#9;&#9;C511.4,443.6,515.4,447.6,515.3,452.3z" style="fill: rgb(22, 29, 56);" transform="matrix(1, 0, 0, 1, 0, 0)"/><path class="st0" d="M431.4,481.6c0-7.7,6.2-14.3,13.8-14.7c0.5,0,1,0,1.5,0.1c0.6,0.2,1,0.6,1,1.3c0,0.7-0.3,1.3-1,1.5&#10;&#9;&#9;c-0.7,0.2-1.5,0.2-2.2,0.3c-5.6,0.8-9.9,5.8-9.9,11.5c0,5.6,4.2,10.5,9.7,11.4c0.6,0.1,1.3,0.2,2,0.3c0.8,0.1,1.4,0.6,1.4,1.5&#10;&#9;&#9;c0,1-0.7,1.5-1.6,1.5c-1.3,0.1-2.6-0.2-3.9-0.6C435.9,494,431.4,488.1,431.4,481.6z" style="fill: rgb(22, 29, 56);" transform="matrix(1, 0, 0, 1, 0, 0)"/><path class="st0" d="M578.1,452.7c-0.6-0.1-1.1-0.4-1.5-0.7c-2.8-2-5.7-3.9-8.5-5.9c-2.1-1.5-2-2.5,0.3-3.7&#10;&#9;&#9;c2.9-1.5,5.8-3.1,8.7-4.6c0.6-0.3,1.2-0.6,1.8-0.7c0.6-0.1,1.2,0.1,1.4,0.7c0.3,0.6,0.3,1.3-0.3,1.8c-0.6,0.5-1.2,0.8-1.9,1.2&#10;&#9;&#9;c-2,1-3.9,2.1-5.9,3.1c-0.9,0.5-0.8,0.8,0,1.3c2,1.4,4.1,2.8,6.1,4.2c0.5,0.3,1,0.6,1.3,1.1C580,451.6,579.3,452.8,578.1,452.7z" style="fill: rgb(22, 29, 56);" transform="matrix(1, 0, 0, 1, 0, 0)"/><path class="st0" d="M485.1,446c0.1-7.1,6.1-13.8,13.6-14.7c0.5-0.1,1-0.1,1.5,0c0.7,0.1,1.2,0.6,1.2,1.3c0.1,0.7-0.3,1.3-1,1.5&#10;&#9;&#9;c-0.5,0.2-1.1,0.2-1.7,0.3c-6.2,1.2-10.2,5.8-10.6,12.1c0,0.2,0,0.5,0,0.7c0,1-0.3,1.8-1.5,1.8c-1.1,0-1.5-0.8-1.6-1.8&#10;&#9;&#9;C485.1,447.1,485.1,446.7,485.1,446z" style="fill: rgb(22, 29, 56);" transform="matrix(1, 0, 0, 1, 0, 0)"/><path class="st0" d="M668.8,446.4c0,2-0.4,2.8-1.6,2.8c-1,0-1.4-0.7-1.6-2.6c-0.4-6.4-4.3-10.9-10.5-12.1c-0.6-0.1-1.1-0.1-1.7-0.3&#10;&#9;&#9;c-0.7-0.2-1-0.8-0.9-1.5c0.1-0.7,0.5-1.2,1.2-1.3c0.4-0.1,0.8,0,1.2,0C662.4,432,668.7,438.8,668.8,446.4z" style="fill: rgb(22, 29, 56);" transform="matrix(1, 0, 0, 1, 0, 0)"/><path class="st7" d="M743.2,509.2c8.3,0,15,6.5,15.1,14.7c0.1,8.6-6.6,15.3-15,15.3c-8.2,0-15.1-6.7-15-14.9&#10;&#9;&#9;C728.3,514.4,736.4,509,743.2,509.2z" style="fill: rgb(232, 56, 74);" transform="matrix(1, 0, 0, 1, 0, 0)"/><path class="st7" d="M896,524.1c0-8.3,6.5-14.9,14.8-14.9c8.5,0,15.2,6.7,15.1,15.2c-0.1,8.2-6.8,14.8-15,14.8&#10;&#9;&#9;C902.5,539.2,896,532.6,896,524.1z" style="fill: rgb(232, 56, 74);" transform="matrix(1, 0, 0, 1, 0, 0)"/><path class="st0" d="M893.7,499.6c0,4.2-3.2,7.4-7.3,7.4c-4.1,0-7.6-3.4-7.5-7.5c0-4,3.4-7.4,7.4-7.4&#10;&#9;&#9;C891.3,492.1,894,496.3,893.7,499.6z" style="fill: rgb(22, 29, 56);" transform="matrix(1, 0, 0, 1, 0, 0)"/><path class="st0" d="M775.3,499.5c0,4.2-3.3,7.6-7.4,7.5c-4.1,0-7.3-3.3-7.3-7.4c0-4.2,3.3-7.6,7.5-7.6&#10;&#9;&#9;C772.1,492.1,775.3,495.4,775.3,499.5z" style="fill: rgb(22, 29, 56);" transform="matrix(1, 0, 0, 1, 0, 0)"/><path class="st0" d="M827,516.5c-8.8-0.2-15.6-4.2-20.5-11.7c-0.2-0.3-0.3-0.6-0.5-0.9c-0.4-0.7-0.1-1.3,0.4-1.8&#10;&#9;&#9;c0.6-0.5,1.4-0.5,2,0.1c0.6,0.6,1,1.3,1.5,2c6.5,9,18,11.8,27.3,6.6c3-1.7,5.4-4,7.4-6.8c0.4-0.5,0.7-1.1,1.1-1.6&#10;&#9;&#9;c0.5-0.7,1.3-0.8,2-0.4c0.8,0.4,0.8,1.2,0.5,1.9c-0.1,0.4-0.4,0.7-0.6,1.1C843.3,512,835.5,516.4,827,516.5z" style="fill: rgb(22, 29, 56);" transform="matrix(1, 0, 0, 1, 0, 0)"/><path class="st0" d="M690,524c0-5.8,3.8-10.7,9.4-12.1c1.1-0.3,2.1-0.3,3.2-0.3c0.9,0.1,1.4,0.5,1.4,1.4c0,0.9-0.5,1.4-1.3,1.5&#10;&#9;&#9;c-0.4,0.1-0.8,0-1.2,0.1c-4.9,0.6-8.4,4.6-8.4,9.4c0,4.9,3.5,8.7,8.4,9.4c2,0.3,2.7,0.8,2.5,1.9c-0.2,1-1,1.4-2.8,1.2&#10;&#9;&#9;C693.8,535.8,689.6,529.5,690,524z" style="fill: rgb(22, 29, 56);" transform="matrix(1, 0, 0, 1, 0, 0)"/><path class="st0" d="M964.3,524.1c0,6.4-4.7,11.8-11,12.5c-0.6,0.1-1.1,0.1-1.7,0c-0.7-0.1-1.2-0.5-1.3-1.3&#10;&#9;&#9;c-0.1-0.9,0.4-1.4,1.2-1.6c0.4-0.1,0.8-0.1,1.2-0.2c5-0.6,8.7-4.6,8.6-9.5c-0.1-4.7-3.7-8.7-8.6-9.3c-0.5-0.1-1,0-1.5-0.2&#10;&#9;&#9;c-0.7-0.2-1-0.8-1-1.5c0.1-0.7,0.5-1.2,1.2-1.3c1.1-0.1,2.1,0,3.2,0.2C960.4,513.3,964.3,518.3,964.3,524.1z" style="fill: rgb(22, 29, 56);" transform="matrix(1, 0, 0, 1, 0, 0)"/><path class="st0" d="M829.4,498.5c0.1,0.9-0.6,1.6-1.5,1.6c-0.4,0-0.8-0.2-1.1-0.4c-2.7-1.8-5.3-3.6-7.9-5.4&#10;&#9;&#9;c-1.4-1-1.3-2.2,0.2-3.1c2.8-1.6,5.6-3,8.5-4.5c0.9-0.4,1.8-0.5,2.3,0.5c0.5,1,0,1.7-0.9,2.2c-1.7,0.9-3.5,1.8-5.2,2.7&#10;&#9;&#9;c-1,0.5-0.9,1-0.1,1.5c1.5,1,3,2,4.5,3.1C828.7,497.3,829.4,497.7,829.4,498.5z" style="fill: rgb(22, 29, 56);" transform="matrix(1, 0, 0, 1, 0, 0)"/><path class="st0" d="M827.5,529.8c-4-0.1-7-1.6-9.2-4.5c-0.3-0.4-0.6-0.8-0.7-1.3c-0.2-0.7-0.1-1.3,0.5-1.7&#10;&#9;&#9;c0.6-0.4,1.3-0.4,1.8,0.1c0.4,0.4,0.7,0.9,1.1,1.3c3.4,4,8.8,4,12.1-0.1c0.3-0.4,0.6-0.8,0.9-1.2c0.6-0.6,1.4-0.6,2-0.1&#10;&#9;&#9;c0.7,0.5,0.8,1.2,0.3,2c-1.3,2.2-3.1,3.8-5.5,4.7C829.8,529.6,828.5,529.7,827.5,529.8z" style="fill: rgb(22, 29, 56);" transform="matrix(1, 0, 0, 1, 0, 0)"/><path class="st0" d="M904.4,494.8c0,0.6,0,1.2-0.3,1.7c-0.3,0.5-0.8,0.8-1.4,0.7c-0.6-0.1-1.1-0.4-1.2-1.1&#10;&#9;&#9;c-0.1-0.7-0.2-1.5-0.3-2.2c-0.6-4.7-3.6-8-8.2-9.1c-0.6-0.1-1.3-0.2-1.9-0.4c-0.7-0.2-1-0.8-0.9-1.6c0.1-0.7,0.5-1.2,1.3-1.3&#10;&#9;&#9;c0.5-0.1,1,0,1.5,0C899.2,482.5,904.3,488.4,904.4,494.8z" style="fill: rgb(22, 29, 56);" transform="matrix(1, 0, 0, 1, 0, 0)"/><path class="st0" d="M749.5,494c0.2-6,5.3-11.5,11.5-12.3c0.5-0.1,1-0.1,1.5,0c0.8,0.1,1.2,0.6,1.2,1.3c0,0.7-0.2,1.3-1,1.5&#10;&#9;&#9;c-0.6,0.2-1.3,0.2-1.9,0.4c-4.7,1.1-7.7,4.6-8.2,9.3c0,0.5,0,1-0.1,1.5c-0.1,0.9-0.6,1.6-1.6,1.5c-0.9-0.1-1.4-0.7-1.5-1.7&#10;&#9;&#9;C749.5,495.1,749.5,494.7,749.5,494z" style="fill: rgb(22, 29, 56);" transform="matrix(1, 0, 0, 1, 0, 0)"/>
</svg>